<svg width="60" height="61" viewBox="0 0 60 61" fill="none" xmlns="http://www.w3.org/2000/svg">
<path d="M2.73237 60.0545C2.00949 60.0548 1.31598 59.7694 0.803829 59.2608C0.291678 58.7522 0.00266157 58.062 0.00012223 57.3413V56.6782C-7.36702e-05 55.6482 0.180313 54.626 0.53314 53.6579L3.0234 46.7842L3.45515 33.974C2.5236 33.8486 1.66904 33.3913 1.04928 32.6868C0.429512 31.9822 0.0863917 31.0779 0.083273 30.1408V16.8683C0.0866606 15.8403 0.499059 14.8556 1.22995 14.1304C1.96085 13.4051 2.95053 12.9986 3.98177 13H20.274C21.3047 12.9994 22.2935 13.4063 23.0237 14.1315C23.7539 14.8566 24.1659 15.8409 24.1693 16.8683V19.2457H49.9365C50.2329 19.2449 50.5181 19.359 50.7319 19.5637C50.9457 19.7685 51.0714 20.0481 51.0824 20.3435L51.9768 46.7852L54.4671 53.66C54.8198 54.6282 55.0002 55.6503 55.0001 56.6803V57.3424C54.9976 58.063 54.7086 58.7533 54.1964 59.2619C53.6843 59.7704 52.9908 60.0558 52.2679 60.0556L2.73237 60.0545ZM2.6876 54.4284C2.42549 55.1497 2.2913 55.911 2.29103 56.6782V57.3403C2.29132 57.4568 2.33794 57.5684 2.42068 57.6507C2.50341 57.733 2.61551 57.7792 2.73237 57.7792H52.2657C52.3825 57.7792 52.4945 57.7329 52.5771 57.6506C52.6596 57.5683 52.706 57.4567 52.706 57.3403V56.6782C52.7057 55.9108 52.5719 55.1492 52.3105 54.4273L50.0718 48.2401H4.92947L2.6876 54.4284ZM49.6529 45.8724L48.8246 21.5188H24.1693V30.1408C24.1656 31.1682 23.7536 32.1522 23.0234 32.8773C22.2933 33.6024 21.3046 34.0094 20.274 34.0091H15.3905L14.5814 38.6203C14.5421 38.8405 14.4388 39.0445 14.2844 39.2067C14.13 39.369 13.9311 39.4825 13.7125 39.5332C13.6269 39.5532 13.5393 39.5632 13.4514 39.5629C13.2719 39.5629 13.0949 39.521 12.9346 39.4406C12.7743 39.3601 12.6351 39.2433 12.5282 39.0996L8.75121 34.0091H5.74606L5.34629 45.8713L49.6529 45.8724ZM12.783 35.6096L13.2968 32.6775C13.3277 32.5009 13.4008 32.3343 13.51 32.1918C13.6166 32.0502 13.7549 31.9352 13.9139 31.8561C14.0728 31.7769 14.2481 31.7358 14.4257 31.7359H20.2729C20.6966 31.7345 21.1025 31.5661 21.4021 31.2675C21.7017 30.9688 21.8706 30.5642 21.872 30.1418V16.8683C21.8706 16.446 21.7017 16.0413 21.4021 15.7427C21.1025 15.444 20.6966 15.2756 20.2729 15.2742H3.98177C3.55671 15.2737 3.14878 15.4412 2.84742 15.74C2.54606 16.0388 2.37588 16.4446 2.37418 16.8683V30.1408C2.37588 30.5645 2.54606 30.9703 2.84742 31.2691C3.14878 31.5679 3.55671 31.7354 3.98177 31.7349H9.33007C9.51942 31.7339 9.70608 31.7795 9.87347 31.8678C10.0408 31.956 10.1838 32.0841 10.2895 32.2407L12.783 35.6096ZM26.2673 56.0852C25.9647 56.0852 25.6746 55.9654 25.4607 55.7521C25.2468 55.5389 25.1266 55.2497 25.1266 54.9481C25.1266 54.6465 25.2468 54.3573 25.4607 54.144C25.6746 53.9308 25.9647 53.811 26.2673 53.811H28.733C29.0355 53.811 29.3256 53.9308 29.5396 54.144C29.7535 54.3573 29.8737 54.6465 29.8737 54.9481C29.8737 55.2497 29.7535 55.5389 29.5396 55.7521C29.3256 55.9654 29.0355 56.0852 28.733 56.0852H26.2673ZM8.06895 52.3019C7.76643 52.3019 7.4763 52.1821 7.26238 51.9688C7.04847 51.7556 6.92829 51.4663 6.92829 51.1648C6.92829 50.8632 7.04847 50.5739 7.26238 50.3607C7.4763 50.1474 7.76643 50.0276 8.06895 50.0276H46.927C47.2296 50.0276 47.5197 50.1474 47.7336 50.3607C47.9475 50.5739 48.0677 50.8632 48.0677 51.1648C48.0677 51.4663 47.9475 51.7556 47.7336 51.9688C47.5197 52.1821 47.2296 52.3019 46.927 52.3019H8.06895ZM32.6027 43.68C32.45 43.6846 32.298 43.6586 32.1556 43.6036C32.0132 43.5486 31.8833 43.4656 31.7737 43.3596C31.6641 43.2536 31.5769 43.1268 31.5174 42.9865C31.4578 42.8463 31.4272 42.6956 31.4272 42.5434C31.4272 42.3911 31.4578 42.2404 31.5174 42.1002C31.5769 41.96 31.6641 41.8331 31.7737 41.7271C31.8833 41.6211 32.0132 41.5381 32.1556 41.4831C32.298 41.4281 32.45 41.4021 32.6027 41.4068H44.3472C44.4999 41.4021 44.6519 41.4281 44.7943 41.4831C44.9367 41.5381 45.0666 41.6211 45.1762 41.7271C45.2859 41.8331 45.373 41.96 45.4326 42.1002C45.4921 42.2404 45.5227 42.3911 45.5227 42.5434C45.5227 42.6956 45.4921 42.8463 45.4326 42.9865C45.373 43.1268 45.2859 43.2536 45.1762 43.3596C45.0666 43.4656 44.9367 43.5486 44.7943 43.6036C44.6519 43.6586 44.4999 43.6846 44.3472 43.68H32.6027ZM38.4734 39.1793C38.3207 39.1839 38.1687 39.158 38.0263 39.103C37.8839 39.0479 37.754 38.965 37.6444 38.859C37.5347 38.753 37.4476 38.6261 37.388 38.4859C37.3285 38.3457 37.2978 38.195 37.2978 38.0427C37.2978 37.8904 37.3285 37.7397 37.388 37.5995C37.4476 37.4593 37.5347 37.3324 37.6444 37.2264C37.754 37.1204 37.8839 37.0375 38.0263 36.9824C38.1687 36.9274 38.3207 36.9015 38.4734 36.9061H42.116C42.2687 36.9015 42.4207 36.9274 42.5631 36.9824C42.7055 37.0375 42.8354 37.1204 42.945 37.2264C43.0547 37.3324 43.1418 37.4593 43.2013 37.5995C43.2609 37.7397 43.2915 37.8904 43.2915 38.0427C43.2915 38.195 43.2609 38.3457 43.2013 38.4859C43.1418 38.6261 43.0547 38.753 42.945 38.859C42.8354 38.965 42.7055 39.0479 42.5631 39.103C42.4207 39.158 42.2687 39.1839 42.116 39.1793H38.4734ZM33.3212 34.6797C33.1686 34.6843 33.0165 34.6584 32.8741 34.6034C32.7317 34.5483 32.6018 34.4654 32.4922 34.3594C32.3826 34.2534 32.2954 34.1265 32.2359 33.9863C32.1764 33.8461 32.1457 33.6954 32.1457 33.5431C32.1457 33.3908 32.1764 33.2401 32.2359 33.0999C32.2954 32.9597 32.3826 32.8328 32.4922 32.7268C32.6018 32.6208 32.7317 32.5379 32.8741 32.4828C33.0165 32.4278 33.1686 32.4019 33.3212 32.4065H43.9475C44.1001 32.4019 44.2522 32.4278 44.3946 32.4828C44.537 32.5379 44.6668 32.6208 44.7765 32.7268C44.8861 32.8328 44.9733 32.9597 45.0328 33.0999C45.0923 33.2401 45.123 33.3908 45.123 33.5431C45.123 33.6954 45.0923 33.8461 45.0328 33.9863C44.9733 34.1265 44.8861 34.2534 44.7765 34.3594C44.6668 34.4654 44.537 34.5483 44.3946 34.6034C44.2522 34.6584 44.1001 34.6843 43.9475 34.6797H33.3212ZM10.9803 29.1407C10.979 28.8334 11.0978 28.5375 11.3115 28.316C11.5252 28.0944 11.8171 27.9644 12.1252 27.9537C12.2727 27.9478 12.4199 27.9716 12.558 28.0235C12.6961 28.0755 12.8224 28.1545 12.9292 28.256C13.0361 28.3575 13.1215 28.4794 13.1802 28.6144C13.2389 28.7494 13.2699 28.8948 13.2712 29.0419V29.1407C13.2621 29.4376 13.1375 29.7192 12.9236 29.926C12.7098 30.1327 12.4236 30.2483 12.1257 30.2483C11.8279 30.2483 11.5417 30.1327 11.3279 29.926C11.114 29.7192 10.9894 29.4376 10.9803 29.1407ZM38.8411 30.178C38.5386 30.178 38.2485 30.0582 38.0346 29.8449C37.8207 29.6317 37.7005 29.3424 37.7005 29.0408C37.7005 28.7393 37.8207 28.45 38.0346 28.2368C38.2485 28.0235 38.5386 27.9037 38.8411 27.9037H42.116C42.4185 27.9037 42.7087 28.0235 42.9226 28.2368C43.1365 28.45 43.2567 28.7393 43.2567 29.0408C43.2567 29.3424 43.1365 29.6317 42.9226 29.8449C42.7087 30.0582 42.4185 30.178 42.116 30.178H38.8411ZM10.9803 25.1279V17.676C10.9894 17.3792 11.114 17.0976 11.3279 16.8908C11.5417 16.6841 11.8279 16.5684 12.1257 16.5684C12.4236 16.5684 12.7098 16.6841 12.9236 16.8908C13.1375 17.0976 13.2621 17.3792 13.2712 17.676V25.1289C13.2621 25.4258 13.1375 25.7074 12.9236 25.9141C12.7098 26.1209 12.4236 26.2365 12.1257 26.2365C11.8279 26.2365 11.5417 26.1209 11.3279 25.9141C11.114 25.7074 10.9894 25.4258 10.9803 25.1289V25.1279ZM33.9107 25.6762C33.6082 25.6762 33.3181 25.5564 33.1042 25.3432C32.8902 25.1299 32.7701 24.8407 32.7701 24.5391C32.7701 24.2375 32.8902 23.9483 33.1042 23.7351C33.3181 23.5218 33.6082 23.402 33.9107 23.402H43.8782C44.1807 23.402 44.4708 23.5218 44.6847 23.7351C44.8987 23.9483 45.0188 24.2375 45.0188 24.5391C45.0188 24.8407 44.8987 25.1299 44.6847 25.3432C44.4708 25.5564 44.1807 25.6762 43.8782 25.6762H33.9107Z" fill="#8E3EDB"/>
</svg>
