<svg width="62" height="60" viewBox="0 0 62 60" fill="none" xmlns="http://www.w3.org/2000/svg">
<g clip-path="url(#clip0_516_1275)">
<path fill-rule="evenodd" clip-rule="evenodd" d="M0.578735 36.4669H17.7983V38.3327H0.578735V36.4669Z" fill="#8E3EDB"/>
<path fill-rule="evenodd" clip-rule="evenodd" d="M5.48324 29.2596H22.7028V31.1254H5.48324V29.2596Z" fill="#8E3EDB"/>
<path fill-rule="evenodd" clip-rule="evenodd" d="M6.71321 42.5006H22.7028V44.3664H6.71321V42.5006Z" fill="#8E3EDB"/>
<path fill-rule="evenodd" clip-rule="evenodd" d="M36.2325 59.9999C27.5305 60.03 19.551 55.2301 15.6305 47.6165L17.3217 46.7739C22.6106 56.9906 35.3562 61.0832 45.7802 55.9072C56.2195 50.7312 60.4014 38.2575 55.1126 28.0559C49.8237 17.8392 37.0781 13.7465 26.6541 18.9225C22.9642 20.7582 19.8893 23.602 17.8291 27.123L16.184 26.1901C22.5183 15.3565 36.6169 11.5948 47.6866 17.779C58.7564 23.9632 62.6 37.776 56.281 48.6096C52.176 55.6514 44.5194 59.9999 36.2325 59.9999Z" fill="#8E3EDB"/>
<path fill-rule="evenodd" clip-rule="evenodd" d="M35.2793 10.9328H37.1857V15.7477H35.2793V10.9328Z" fill="#8E3EDB"/>
<path fill-rule="evenodd" clip-rule="evenodd" d="M32.5426 9.99988H39.9071V11.8657H32.5426V9.99988Z" fill="#8E3EDB"/>
<path fill-rule="evenodd" clip-rule="evenodd" d="M17.1526 17.6887L18.5056 16.3646L22.1955 19.9758L20.8425 21.2999L17.1526 17.6887Z" fill="#8E3EDB"/>
<path fill-rule="evenodd" clip-rule="evenodd" d="M14.6158 18.6216L19.5357 13.8067L20.8886 15.1308L15.9687 19.9457L14.6158 18.6216Z" fill="#8E3EDB"/>
<path fill-rule="evenodd" clip-rule="evenodd" d="M49.0857 19.9006L52.7756 16.2894L54.1286 17.6135L50.4387 21.2247L49.0857 19.9006Z" fill="#8E3EDB"/>
<path fill-rule="evenodd" clip-rule="evenodd" d="M50.2849 15.1458L51.6379 13.8217L56.5578 18.6367L55.2048 19.9608L50.2849 15.1458Z" fill="#8E3EDB"/>
<path fill-rule="evenodd" clip-rule="evenodd" d="M47.21 27.4088C41.7981 21.7212 32.7886 21.1494 26.6695 26.0847L25.4549 24.6403C32.3427 19.058 42.49 19.6899 48.6091 26.0847L47.21 27.4088Z" fill="#8E3EDB"/>
<path fill-rule="evenodd" clip-rule="evenodd" d="M36.2325 43.1476C33.665 43.1476 31.5894 41.1163 31.5894 38.6036C31.5894 36.0908 33.665 34.0595 36.2325 34.0595C38.8001 34.0595 40.8757 36.0908 40.8757 38.6036C40.8757 41.1013 38.8001 43.1326 36.2325 43.1476ZM36.2325 35.9253C34.7412 35.9253 33.5266 37.1139 33.5266 38.5735C33.5266 40.033 34.7412 41.2217 36.2325 41.2217C37.7239 41.2217 38.9385 40.033 38.9385 38.5735C38.9385 37.1139 37.7239 35.9253 36.2325 35.9253Z" fill="#8E3EDB"/>
<path fill-rule="evenodd" clip-rule="evenodd" d="M28.3146 42.6511L32.6349 39.8374L33.6957 41.3872L29.3754 44.2009L28.3146 42.6511Z" fill="#8E3EDB"/>
<path fill-rule="evenodd" clip-rule="evenodd" d="M38.7693 35.85L50.4541 28.2214L51.5149 29.7712L39.8302 37.3998L38.7693 35.85Z" fill="#8E3EDB"/>
</g>
<defs>
<clipPath id="clip0_516_1275">
<rect width="61.3079" height="60" fill="white" transform="translate(0.578796)"/>
</clipPath>
</defs>
</svg>
