<svg width="60" height="60" viewBox="0 0 60 60" fill="none" xmlns="http://www.w3.org/2000/svg">
<path fill-rule="evenodd" clip-rule="evenodd" d="M24.1527 49.8602C22.1635 51.3013 20.0959 52.617 17.9657 53.7917C15.0367 52.4134 2.34949 44.1118 2.34949 39.1936V22.6062C7.0328 22.1206 14.8958 19.0663 17.9657 16.6072C21.0357 19.0663 28.8987 22.1363 33.5976 22.6062V31.2366C33.5193 31.8945 34.0049 32.474 34.6471 32.5523C35.305 32.6307 35.8845 32.1451 35.9628 31.5029C35.9628 31.4246 35.9628 31.3306 35.9628 31.2523V21.5724C35.9628 20.9302 35.4459 20.3977 34.8037 20.382C30.1204 20.382 20.2525 16.1373 18.9525 14.336C18.5139 13.8035 17.7308 13.7251 17.1982 14.1637C17.1356 14.2107 17.0729 14.2734 17.0259 14.336C15.7259 16.1529 5.85805 20.382 1.17474 20.382C0.53255 20.382 0 20.9146 0 21.5568V39.3032C0 46.6649 16.9006 56.1255 17.6838 56.3292H17.9814C18.0754 56.3292 18.185 56.3292 18.279 56.3292C20.8321 55.0761 23.2599 53.5881 25.5311 51.8965C26.0636 51.5205 26.1889 50.7687 25.813 50.2362C25.4371 49.7036 24.6853 49.5783 24.1527 49.9542V49.8602Z" fill="#8E3EDB"/>
<path fill-rule="evenodd" clip-rule="evenodd" d="M29.7923 36.0292C30.4501 36.0292 30.967 35.4967 30.9827 34.8388V25.6131C30.9827 24.9553 30.4501 24.4384 29.7923 24.4227C26.6596 24.4227 19.7678 21.666 18.922 20.4443C18.7027 20.1467 18.3425 19.9744 17.9665 19.9744C17.5906 19.9744 17.246 20.1467 17.0267 20.4443C15.1315 21.854 12.9699 22.8877 10.6831 23.4829C10.0879 23.7492 9.80598 24.4541 10.0723 25.0493C10.2915 25.5662 10.8554 25.8481 11.4036 25.7385C13.7218 25.0336 15.9303 24.0155 17.9822 22.7311C21.2401 24.736 24.8583 26.0987 28.6175 26.7096V34.8544C28.6175 35.5123 29.1344 36.0292 29.7923 36.0449V36.0292Z" fill="#8E3EDB"/>
<path fill-rule="evenodd" clip-rule="evenodd" d="M6.14098 27.5559C5.49878 27.5559 4.96623 28.0885 4.96623 28.7307V37.7213C4.96623 43.0468 17.1052 49.5314 17.6848 49.6881C17.8727 49.7507 18.0764 49.7507 18.2644 49.6881C20.3789 48.6856 22.3995 47.4639 24.279 46.0542C24.8586 45.7409 25.0779 45.0204 24.7646 44.4409C24.4513 43.8613 23.7308 43.642 23.1513 43.9553C23.0573 44.0023 22.9633 44.065 22.885 44.1433C21.3187 45.271 19.674 46.3205 17.9824 47.2603C15.7425 46.1325 7.34708 40.7757 7.34708 37.7213V28.7307C7.34708 28.0885 6.81453 27.5559 6.17233 27.5559H6.14098Z" fill="#8E3EDB"/>
<path fill-rule="evenodd" clip-rule="evenodd" d="M37.5452 0.551987L28.8208 12.9886C28.4449 13.5212 28.5702 14.2573 29.1027 14.6333C29.3063 14.7742 29.5413 14.8525 29.7919 14.8525H33.5981V16.1682C33.6764 16.8261 34.2559 17.296 34.9138 17.2177C35.462 17.155 35.9006 16.7165 35.9632 16.1682V13.6778C35.9632 13.0356 35.4464 12.503 34.8042 12.4874H32.0317L38.485 3.2774L44.9226 12.4874H42.1659C41.5237 12.4874 40.9911 13.0199 40.9911 13.6621V18.6587C40.9128 19.3166 41.3984 19.8961 42.0406 19.9744C42.6984 20.0527 43.278 19.5672 43.3563 18.925C43.3563 18.8467 43.3563 18.7527 43.3563 18.6744V14.8682H47.1468C47.5853 14.8682 47.9926 14.6176 48.1962 14.226C48.3998 13.8344 48.3685 13.3645 48.1179 13.0043L39.4092 0.567642C38.9706 0.0664181 38.2031 0.00376222 37.6862 0.442333C37.6392 0.47366 37.6079 0.520652 37.5609 0.567642L37.5452 0.551987Z" fill="#8E3EDB"/>
<path fill-rule="evenodd" clip-rule="evenodd" d="M56.9049 31.6743L48.1804 19.2376C47.7732 18.7051 47.0057 18.5955 46.4732 19.0027C46.3792 19.0654 46.3009 19.1437 46.2382 19.2376L37.5295 31.6743C37.2632 32.0345 37.2319 32.5044 37.4512 32.896C37.6548 33.2876 38.062 33.5382 38.5006 33.5382H42.3067V38.5818C42.2284 39.2396 42.714 39.8192 43.3562 39.8975C44.014 39.9758 44.5936 39.4902 44.6719 38.848C44.6719 38.7697 44.6719 38.6757 44.6719 38.5974V32.3791C44.6719 31.7213 44.1393 31.2044 43.4815 31.1887H40.7248L47.1623 21.9787L53.6156 31.1887H50.8589C50.201 31.1887 49.6685 31.7213 49.6685 32.3791V46.0688C49.7468 46.7267 50.3263 47.1965 50.9842 47.1182C51.5324 47.0556 51.971 46.617 52.0336 46.0688V33.5539H55.8398C56.482 33.5539 57.0145 33.037 57.0145 32.3791C57.0145 32.1285 56.9362 31.8936 56.7952 31.6899H56.9049V31.6743Z" fill="#8E3EDB"/>
<path fill-rule="evenodd" clip-rule="evenodd" d="M35.7598 35.3867C35.3526 34.8384 34.5851 34.7288 34.0369 35.136C33.9429 35.2144 33.8489 35.2927 33.7862 35.3867L26.3149 46.6015C26.0956 46.9774 26.0956 47.4317 26.3149 47.8076C26.5185 48.1992 26.9101 48.4341 27.3487 48.4498H29.9018V58.4743C29.9018 59.1165 30.4343 59.649 31.0765 59.649C31.7187 59.649 32.2512 59.1321 32.2669 58.4743V47.2594C32.2669 46.6015 31.7344 46.0846 31.0765 46.069H29.5572L34.82 38.1747L40.0672 46.069H38.5479C37.89 46.069 37.3731 46.6015 37.3575 47.2594V52.2403C37.2948 52.8982 37.7647 53.4777 38.4069 53.556C39.0648 53.6343 39.6443 53.1488 39.7226 52.5066C39.7226 52.4283 39.7226 52.3343 39.7226 52.256V48.4655H42.2757C42.7143 48.4655 43.1216 48.2148 43.3095 47.8233C43.5288 47.4473 43.5288 46.9931 43.3095 46.6172L35.7285 35.4023L35.7598 35.3867Z" fill="#8E3EDB"/>
</svg>
