<svg width="60" height="60" viewBox="0 0 60 60" fill="none" xmlns="http://www.w3.org/2000/svg">
<path fill-rule="evenodd" clip-rule="evenodd" d="M25.2679 59.5555C25.1658 59.5693 25.0623 59.5693 24.9602 59.5555L20.0783 58.1549C19.6334 58.0296 19.3243 57.6236 19.323 57.1604L19.2251 51.9779L16.6791 50.4932L12.147 53.0004C11.7358 53.2292 11.2251 53.1608 10.8881 52.8324L7.30705 49.2467C6.96995 48.9143 6.9014 48.3954 7.13925 47.986L9.57309 43.3079L8.10441 40.7588L2.92868 40.6607C2.4657 40.6591 2.06005 40.3503 1.93553 39.9043L0.536751 35.016C0.406639 34.5638 0.588491 34.0796 0.98444 33.8255L5.18081 31.1502V28.2229L0.98444 25.5617C0.592724 25.3044 0.410872 24.8231 0.536751 24.371L1.93553 19.4688C2.06852 19.0281 2.46858 18.7231 2.92868 18.7123L8.10441 18.6284L9.58717 16.0652L7.08327 11.541C6.85527 11.1299 6.92244 10.6173 7.25107 10.2805L10.8321 6.6948C11.1651 6.36164 11.677 6.28755 12.0911 6.51268L16.6233 9.03378L19.1691 7.63318L19.267 2.43674C19.2726 1.97512 19.5803 1.57153 20.0224 1.44229L24.9043 0.0416837C25.3561 -0.0886232 25.8401 0.0936369 26.0933 0.489814L28.7649 4.6918H31.7445L34.4023 0.489814C34.6597 0.0974396 35.1394 -0.0837549 35.5912 0.0416837L40.4872 1.44229C40.9249 1.57909 41.2271 1.97815 41.2425 2.43674L41.3265 7.63318L43.8723 9.11788L48.4045 6.59678C48.8186 6.37165 49.3305 6.44571 49.6635 6.77887L53.2445 10.2805C53.5774 10.6139 53.6515 11.1269 53.4262 11.541L50.9084 16.0791L52.3772 18.6284L57.5667 18.7123C58.0243 18.7272 58.4228 19.0308 58.56 19.4688L59.9588 24.371C60.0847 24.8231 59.9028 25.3044 59.5111 25.5617L55.3148 28.2229V31.2062L59.5111 33.8814C59.9071 34.1356 60.0889 34.6198 59.9588 35.072L58.56 39.9604C58.4299 40.4085 58.0187 40.7166 57.5528 40.7166L52.3772 40.8147L50.8945 43.3079L53.4123 47.8461C53.6376 48.2603 53.5633 48.7731 53.2304 49.1065L49.6494 52.6922C49.3123 53.0207 48.8018 53.089 48.3904 52.8604L43.8583 50.3532L41.3124 51.7539L41.2286 56.9362C41.2174 57.3965 40.9139 57.7976 40.4731 57.9308L35.5773 59.3314C35.1255 59.4569 34.6457 59.2757 34.3882 58.8831L31.7305 54.6813H28.751L26.0793 58.8831C25.9492 59.2369 25.6386 59.4935 25.2679 59.5555ZM21.4212 56.264L24.7924 57.2584L27.3522 53.2525C27.5467 52.9531 27.8768 52.7695 28.2334 52.7624H32.4299C32.7908 52.7674 33.1265 52.9508 33.3252 53.2525L35.7451 57.3145L39.1303 56.306L39.2143 51.2916C39.2226 50.9204 39.424 50.5808 39.7458 50.3952L43.3268 48.3222C43.6471 48.1398 44.0416 48.1398 44.3619 48.3222L48.7262 50.7453L51.1743 48.2803L48.7542 43.9242C48.5723 43.5977 48.5723 43.2002 48.7542 42.8737L50.8385 39.288C51.0231 38.9677 51.3644 38.7702 51.7338 38.7697L56.7275 38.6717L57.7206 35.2822L53.734 32.7329C53.4305 32.5417 53.2472 32.2092 53.2445 31.8506V27.6486C53.2416 27.2851 53.4262 26.9461 53.734 26.7521L57.7206 24.203L56.7275 20.8134L51.7197 20.7293C51.3476 20.7259 51.0049 20.5228 50.8244 20.197L48.7542 16.6114C48.5723 16.29 48.5723 15.8964 48.7542 15.575L51.1743 11.2049L48.7262 8.75367L44.3619 11.1769C44.0416 11.3592 43.6471 11.3592 43.3268 11.1769L39.7318 9.08986C39.4157 8.90093 39.2199 8.56187 39.2143 8.19343L39.1303 3.19317L35.7451 2.19872L33.1993 6.1906C33.0062 6.49798 32.6678 6.68341 32.3041 6.6807H28.1075C27.7494 6.67857 27.4179 6.49374 27.2264 6.1906L24.6804 2.19872L21.2953 3.19317L21.2114 8.20752C21.203 8.57868 21.0015 8.91835 20.6798 9.10393L17.1548 11.1628C16.8289 11.3449 16.4316 11.3449 16.1057 11.1628L11.7553 8.73972L9.29335 11.1908L11.7134 15.5609C11.9009 15.8808 11.9009 16.2774 11.7134 16.5974L9.62906 20.197C9.4416 20.5154 9.10315 20.7121 8.73383 20.7153L3.74012 20.7994L2.74697 24.1889L6.74753 26.7382C7.04832 26.9374 7.23155 27.273 7.23714 27.6346V31.8365C7.23017 32.1937 7.04697 32.5241 6.74753 32.719L2.74697 35.2681L3.75403 38.6578L8.74789 38.7417C9.11858 38.7508 9.45841 38.9524 9.64314 39.2741L11.7134 42.8598C11.9036 43.184 11.9036 43.5859 11.7134 43.9102L9.29335 48.2662L11.7553 50.7314L16.1057 48.3083C16.4302 48.1206 16.8303 48.1206 17.1548 48.3083L20.7358 50.3111C21.0575 50.494 21.2562 50.837 21.2533 51.2075L21.4212 56.264Z" fill="#8E3ED8"/>
<path fill-rule="evenodd" clip-rule="evenodd" d="M34.2478 49.5266C31.4431 49.5654 29.1393 47.3205 29.1001 44.5127C29.0622 41.705 31.3032 39.3975 34.1079 39.3589C36.9125 39.3203 39.2164 41.565 39.2556 44.3729C39.2556 44.4006 39.2556 44.4285 39.2556 44.4564C39.2485 47.2317 37.0189 49.4885 34.2478 49.5266ZM34.2478 41.487C32.6097 41.4793 31.2767 42.8023 31.2682 44.4423C31.2613 46.0821 32.5818 47.4179 34.2198 47.4256C35.8578 47.4334 37.1909 46.1102 37.1993 44.4703C37.1993 44.4656 37.1993 44.4609 37.1993 44.4564C37.2077 42.8241 35.8914 41.4946 34.2617 41.487C34.2575 41.487 34.2519 41.487 34.2478 41.487Z" fill="#8E3ED8"/>
<path fill-rule="evenodd" clip-rule="evenodd" d="M38.2627 22.7463C35.458 22.754 33.1794 20.4841 33.1709 17.6761C33.1626 14.868 35.43 12.5854 38.2347 12.5777C41.0394 12.5699 43.318 14.84 43.3264 17.6481C43.3264 17.6526 43.3264 17.6574 43.3264 17.662C43.3264 20.4646 41.0618 22.7387 38.2627 22.7463ZM38.2627 14.7067C36.6247 14.6989 35.2916 16.0221 35.2832 17.662C35.2761 19.302 36.5967 20.6376 38.2347 20.6455C39.8727 20.6531 41.2058 19.3299 41.2141 17.69C41.2141 17.6806 41.2141 17.6714 41.2141 17.662C41.2072 16.0331 39.8895 14.7143 38.2627 14.7067Z" fill="#8E3ED8"/>
<path fill-rule="evenodd" clip-rule="evenodd" d="M43.606 36.1366C40.8015 36.1366 38.5283 33.8602 38.5283 31.0521C38.5283 28.2441 40.8015 25.9678 43.606 25.9678C46.4107 25.9678 48.6838 28.2441 48.6838 31.0521C48.6838 33.8602 46.4107 36.1366 43.606 36.1366ZM43.606 28.0968C41.968 28.0968 40.6405 29.4262 40.6405 31.0662C40.6405 32.7062 41.968 34.0356 43.606 34.0356C45.2441 34.0356 46.5715 32.706 46.5715 31.0662C46.5715 31.0613 46.5715 31.0568 46.5715 31.0521C46.5632 29.4177 45.2384 28.0968 43.606 28.0968Z" fill="#8E3ED8"/>
<path fill-rule="evenodd" clip-rule="evenodd" d="M10.1738 30.0017H39.605V32.1167H10.1738V30.0017Z" fill="#8E3ED8"/>
<path fill-rule="evenodd" clip-rule="evenodd" d="M30.667 26.752H22.2041V24.651H29.7997L34.8355 19.5947L36.3322 21.0934L30.667 26.752Z" fill="#8E3ED8"/>
<path fill-rule="evenodd" clip-rule="evenodd" d="M24.8896 21.4016C22.085 21.4093 19.8064 19.1394 19.7979 16.3313C19.7909 13.5233 22.057 11.2407 24.8616 11.2329C27.6663 11.2252 29.9449 13.4953 29.9534 16.3033C29.9534 16.3127 29.9534 16.3219 29.9534 16.3313C29.9449 19.1283 27.6831 21.394 24.8896 21.4016ZM24.8896 13.3619C23.2516 13.3542 21.9185 14.6773 21.9102 16.3173C21.9017 17.9573 23.2237 19.2929 24.8616 19.3007C26.4996 19.3083 27.8328 17.9851 27.8411 16.3453C27.8411 16.3407 27.8411 16.3359 27.8411 16.3313C27.8411 14.6968 26.522 13.3695 24.8896 13.3619Z" fill="#8E3ED8"/>
<path fill-rule="evenodd" clip-rule="evenodd" d="M30.8216 42.5237L25.7858 37.4672H12.8467V35.3523H26.667L32.3183 41.0249L30.8216 42.5237Z" fill="#8E3ED8"/>
<path fill-rule="evenodd" clip-rule="evenodd" d="M15.9649 26.7521H10.1738V24.6511H15.0837L21.4623 18.2642L22.9591 19.7489L15.9649 26.7521Z" fill="#8E3ED8"/>
</svg>
