<?xml version="1.0" encoding="UTF-8"?>
<svg xmlns="http://www.w3.org/2000/svg" xmlns:xlink="http://www.w3.org/1999/xlink" width="32px" height="32px" viewBox="0 0 32 32" version="1.1">
<g id="surface1">
<path style=" stroke:none;fill-rule:evenodd;fill:rgb(55.686275%,24.313725%,84.705882%);fill-opacity:1;" d="M 15.695312 31.71875 C 15.433594 31.71875 15.160156 31.71875 14.871094 31.71875 C 6.195312 31.230469 -0.445312 23.800781 0.0390625 15.121094 C 0.488281 7.125 6.875 0.742188 14.871094 0.292969 C 15.398438 0.292969 15.953125 0.292969 16.523438 0.292969 C 25.199219 0.78125 31.839844 8.210938 31.351562 16.886719 C 30.902344 24.886719 24.519531 31.269531 16.523438 31.71875 Z M 14.929688 30.671875 C 15.429688 30.671875 15.933594 30.671875 16.4375 30.671875 C 24.554688 30.242188 30.785156 23.3125 30.355469 15.199219 C 29.957031 7.683594 23.953125 1.679688 16.4375 1.28125 C 15.945312 1.28125 15.425781 1.28125 14.929688 1.28125 C 6.816406 1.667969 0.550781 8.554688 0.9375 16.667969 C 1.292969 24.246094 7.355469 30.304688 14.929688 30.664062 Z M 14.929688 30.671875 "/>
<path style=" stroke:none;fill-rule:evenodd;fill:rgb(55.686275%,24.313725%,84.705882%);fill-opacity:1;" d="M 14.945312 31.695312 C 6.269531 31.207031 -0.371094 23.777344 0.113281 15.097656 C 0.5625 7.101562 6.949219 0.714844 14.945312 0.265625 C 15.234375 0.257812 15.472656 0.484375 15.484375 0.769531 C 15.484375 0.773438 15.484375 0.777344 15.484375 0.777344 C 15.484375 1.054688 15.261719 1.28125 14.988281 1.289062 C 6.871094 1.71875 0.640625 8.648438 1.070312 16.761719 C 1.46875 24.277344 7.472656 30.28125 14.988281 30.679688 C 15.257812 30.691406 15.46875 30.914062 15.472656 31.183594 C 15.472656 31.464844 15.246094 31.695312 14.964844 31.695312 C 14.957031 31.695312 14.953125 31.695312 14.945312 31.695312 Z M 14.945312 31.695312 "/>
<path style=" stroke:none;fill-rule:evenodd;fill:rgb(55.686275%,24.313725%,84.705882%);fill-opacity:1;" d="M 16.523438 31.695312 C 16.371094 31.695312 16.230469 31.628906 16.132812 31.511719 C 15.953125 31.300781 15.980469 30.984375 16.191406 30.804688 C 16.195312 30.800781 16.195312 30.796875 16.199219 30.796875 C 24.378906 23.953125 25.464844 11.773438 18.621094 3.59375 C 17.886719 2.71875 17.078125 1.90625 16.199219 1.175781 C 15.96875 1.011719 15.910156 0.695312 16.074219 0.460938 C 16.234375 0.230469 16.554688 0.175781 16.785156 0.335938 C 16.808594 0.351562 16.832031 0.371094 16.851562 0.390625 C 25.464844 7.605469 26.597656 20.433594 19.386719 29.046875 C 18.617188 29.964844 17.769531 30.8125 16.851562 31.578125 C 16.757812 31.652344 16.640625 31.695312 16.523438 31.695312 Z M 16.523438 31.695312 "/>
<path style=" stroke:none;fill-rule:evenodd;fill:rgb(55.686275%,24.313725%,84.705882%);fill-opacity:1;" d="M 14.945312 31.695312 C 14.828125 31.695312 14.710938 31.652344 14.617188 31.578125 C 11.953125 29.339844 9.902344 26.457031 8.660156 23.207031 C 5.589844 15.109375 7.976562 5.953125 14.617188 0.390625 C 14.707031 0.308594 14.824219 0.265625 14.945312 0.265625 C 15.230469 0.265625 15.457031 0.496094 15.457031 0.777344 C 15.457031 0.941406 15.382812 1.09375 15.25 1.191406 C 7.078125 8.054688 6.019531 20.246094 12.882812 28.421875 C 13.605469 29.277344 14.394531 30.066406 15.25 30.785156 C 15.476562 30.953125 15.523438 31.265625 15.355469 31.492188 C 15.257812 31.621094 15.101562 31.699219 14.9375 31.695312 Z M 14.945312 31.695312 "/>
<path style=" stroke:none;fill-rule:evenodd;fill:rgb(55.686275%,24.313725%,84.705882%);fill-opacity:1;" d="M 16.523438 31.695312 C 16.253906 31.691406 16.03125 31.476562 16.019531 31.207031 C 16 30.933594 16.207031 30.699219 16.480469 30.679688 C 16.484375 30.679688 16.492188 30.679688 16.496094 30.679688 C 24.613281 30.25 30.84375 23.320312 30.414062 15.207031 C 30.015625 7.691406 24.011719 1.6875 16.496094 1.289062 C 16.214844 1.285156 15.992188 1.046875 16 0.765625 C 16.003906 0.484375 16.238281 0.261719 16.523438 0.265625 C 25.199219 0.753906 31.839844 8.183594 31.351562 16.863281 C 30.902344 24.859375 24.519531 31.246094 16.523438 31.695312 Z M 16.523438 31.695312 "/>
<path style=" stroke:none;fill-rule:evenodd;fill:rgb(55.686275%,24.313725%,84.705882%);fill-opacity:1;" d="M 15.695312 10.808594 C 11.328125 10.816406 7.074219 9.410156 3.570312 6.800781 C 3.460938 6.714844 3.390625 6.589844 3.375 6.453125 C 3.355469 6.316406 3.394531 6.175781 3.480469 6.066406 C 6.300781 2.621094 10.441406 0.523438 14.890625 0.292969 C 15.175781 0.28125 15.414062 0.507812 15.425781 0.796875 C 15.425781 0.796875 15.425781 0.800781 15.425781 0.804688 C 15.425781 1.078125 15.207031 1.304688 14.929688 1.316406 C 10.957031 1.523438 7.242188 3.332031 4.621094 6.320312 C 6.03125 7.3125 7.570312 8.109375 9.195312 8.6875 C 13.398438 10.183594 17.988281 10.183594 22.1875 8.6875 C 23.816406 8.113281 25.359375 7.316406 26.773438 6.320312 C 24.175781 3.332031 20.476562 1.515625 16.523438 1.289062 C 16.238281 1.289062 16.011719 1.0625 16.011719 0.777344 C 16.011719 0.496094 16.238281 0.265625 16.523438 0.265625 C 20.972656 0.488281 25.121094 2.585938 27.9375 6.042969 C 28.027344 6.148438 28.070312 6.289062 28.054688 6.429688 C 28.035156 6.566406 27.960938 6.695312 27.847656 6.773438 C 24.335938 9.394531 20.074219 10.808594 15.695312 10.808594 Z M 15.695312 10.808594 "/>
<path style=" stroke:none;fill-rule:evenodd;fill:rgb(55.686275%,24.313725%,84.705882%);fill-opacity:1;" d="M 16.523438 31.695312 C 16.253906 31.691406 16.03125 31.476562 16.019531 31.207031 C 16 30.933594 16.207031 30.699219 16.480469 30.679688 C 16.484375 30.679688 16.492188 30.679688 16.496094 30.679688 C 20.410156 30.472656 24.078125 28.722656 26.699219 25.8125 C 21.609375 22.320312 15.15625 21.464844 9.328125 23.503906 C 7.722656 24.066406 6.199219 24.84375 4.800781 25.8125 C 7.417969 28.71875 11.082031 30.46875 14.988281 30.679688 C 15.269531 30.660156 15.511719 30.871094 15.53125 31.15625 C 15.550781 31.4375 15.339844 31.679688 15.058594 31.699219 C 15.019531 31.703125 14.976562 31.699219 14.9375 31.695312 C 10.554688 31.464844 6.464844 29.417969 3.652344 26.042969 C 3.5625 25.9375 3.519531 25.796875 3.539062 25.65625 C 3.554688 25.515625 3.628906 25.390625 3.746094 25.308594 C 7.214844 22.773438 11.398438 21.402344 15.695312 21.390625 C 20.011719 21.382812 24.21875 22.753906 27.699219 25.308594 C 27.8125 25.390625 27.886719 25.515625 27.90625 25.65625 C 27.921875 25.796875 27.878906 25.9375 27.789062 26.042969 C 24.980469 29.414062 20.898438 31.460938 16.523438 31.695312 Z M 16.523438 31.695312 "/>
<path style=" stroke:none;fill-rule:evenodd;fill:rgb(55.686275%,24.313725%,84.705882%);fill-opacity:1;" d="M 15.695312 31.71875 C 15.414062 31.71875 15.1875 31.488281 15.1875 31.207031 L 15.1875 0.761719 C 15.1875 0.480469 15.414062 0.25 15.695312 0.25 C 15.980469 0.25 16.207031 0.480469 16.207031 0.761719 L 16.207031 31.207031 C 16.207031 31.488281 15.980469 31.71875 15.695312 31.71875 Z M 15.695312 31.71875 "/>
<path style=" stroke:none;fill-rule:evenodd;fill:rgb(55.686275%,24.313725%,84.705882%);fill-opacity:1;" d="M 30.941406 16.492188 L 0.511719 16.492188 C 0.230469 16.492188 0 16.261719 0 15.980469 C 0 15.699219 0.230469 15.46875 0.511719 15.46875 L 30.941406 15.46875 C 31.222656 15.46875 31.453125 15.699219 31.453125 15.980469 C 31.453125 16.261719 31.222656 16.492188 30.941406 16.492188 Z M 30.941406 16.492188 "/>
</g>
</svg>
