<svg width="60" height="61" viewBox="0 0 60 61" fill="none" xmlns="http://www.w3.org/2000/svg">
<path fill-rule="evenodd" clip-rule="evenodd" d="M36.6058 51.3267C36.0383 51.3267 35.5776 50.8664 35.5776 50.2985V48.9275C35.5776 46.1855 30.0937 44.6774 27.3516 44.6774C24.6097 44.6774 19.1255 46.1718 19.1255 48.9275V50.2985C19.1915 50.8627 18.787 51.373 18.2221 51.4386C17.6587 51.5039 17.1487 51.0998 17.0829 50.5356C17.0733 50.4569 17.0733 50.3772 17.0829 50.2985V48.9275C17.0829 44.4856 23.7596 42.6346 27.3241 42.6346C30.8887 42.6346 37.5792 44.4856 37.5792 48.9275V50.2985C37.5807 50.8457 37.1528 51.2976 36.6058 51.3267Z" fill="#8E3EDB"/>
<path fill-rule="evenodd" clip-rule="evenodd" d="M27.3652 44.8C24.0214 44.9288 21.2052 42.3221 21.0765 38.9778C21.0736 38.8895 21.0723 38.8013 21.0723 38.7128V36.9716C21.0723 33.4961 23.8898 30.6787 27.3652 30.6787C30.8407 30.6787 33.6581 33.4961 33.6581 36.9716V38.6579C33.7061 42.0042 31.0327 44.7561 27.686 44.8038C27.5791 44.8054 27.4722 44.8041 27.3652 44.8ZM27.3652 32.9819C25.151 32.8533 23.2507 34.5443 23.122 36.759C23.1164 36.848 23.1151 36.9373 23.1151 37.0265V38.7128C23.2481 41.0637 25.2622 42.8616 27.6133 42.728C29.778 42.6051 31.5056 40.8774 31.629 38.7128V36.9716C31.6481 34.7531 29.866 32.9391 27.6477 32.9198C27.553 32.9189 27.4585 32.9214 27.3652 32.9272V32.9819Z" fill="#8E3EDB"/>
<path fill-rule="evenodd" clip-rule="evenodd" d="M9.56989 48.6796C6.39048 48.6171 3.86377 45.989 3.9254 42.8094C3.92683 42.7325 3.93092 42.6555 3.93501 42.5786V40.8786C3.71843 37.7665 6.06422 35.0678 9.17629 34.8505C12.2885 34.6333 14.988 36.98 15.2046 40.092C15.2225 40.3539 15.2225 40.6167 15.2046 40.8786V42.5786C15.4021 45.7451 12.9946 48.472 9.82899 48.6693C9.74253 48.6747 9.65625 48.6781 9.56989 48.6796ZM9.56989 36.8204C7.51201 36.8851 5.89549 38.6063 5.95988 40.6649C5.96273 40.7546 5.96825 40.8441 5.97776 40.9334V42.6335C5.7023 44.6211 7.09112 46.4554 9.07898 46.7302C11.0669 47.0053 12.9 45.6168 13.1756 43.6293C13.2208 43.2988 13.2208 42.9638 13.1756 42.6335V40.8786C13.3579 38.8272 11.8429 37.0161 9.79189 36.8336C9.71789 36.827 9.64389 36.8226 9.56989 36.8204Z" fill="#8E3EDB"/>
<path fill-rule="evenodd" clip-rule="evenodd" d="M1.01439 60.5529H0.849928C0.29463 60.4552 -0.0769002 59.9296 0.013557 59.3739L1.38459 51.4631C2.01531 48.0494 3.45483 46.6646 6.34764 46.6646H8.66453C9.98628 46.6578 11.2558 47.1813 12.1881 48.1179L17.3019 53.2318H25.8158V54.26C25.8158 56.4261 24.7739 60.5529 20.8391 60.5529H12.5034L8.25333 56.2891C7.85574 55.8916 7.85574 55.2471 8.25333 54.8495C8.65092 54.4521 9.29525 54.4521 9.69284 54.8495L13.2986 58.5101H20.7843C22.7858 58.5101 23.4166 56.5359 23.6222 55.2746H16.3969L10.6662 49.5438C10.1193 48.9917 9.37334 48.6809 8.59604 48.68H6.33385C4.96292 48.68 3.9209 48.8994 3.38625 51.806L2.01531 59.7029C1.92885 60.1902 1.50929 60.5471 1.01439 60.5529Z" fill="#8E3EDB"/>
<path fill-rule="evenodd" clip-rule="evenodd" d="M53.7291 60.5546C53.2342 60.5488 52.8147 60.1918 52.7284 59.7045L51.3573 51.7939C50.8226 48.901 49.8493 48.6817 48.4098 48.6817H46.0927C45.3153 48.6825 44.5694 48.9934 44.0225 49.5454L38.2917 55.2762H31.0665C31.2722 56.5375 31.9028 58.5118 33.9044 58.5118H41.3903L45.0508 54.8512C45.4483 54.4537 46.0927 54.4537 46.4902 54.8512C46.888 55.2488 46.888 55.8933 46.4902 56.2908L42.2401 60.5546H33.9044C29.9697 60.5546 28.9277 56.4416 28.9277 54.2617V53.2334H37.4416L42.5692 48.1059C43.5015 47.1693 44.7711 46.6457 46.0927 46.6525H48.4098C51.3024 46.6525 52.7419 48.0236 53.3727 51.4374L54.7437 59.3618C54.8341 59.9175 54.4626 60.4431 53.9075 60.5409L53.7291 60.5546Z" fill="#8E3EDB"/>
<path fill-rule="evenodd" clip-rule="evenodd" d="M45.1743 48.6797C42.0018 48.6252 39.475 46.0096 39.5299 42.8375C39.5312 42.7512 39.5341 42.6649 39.5394 42.5788V40.8787C39.2737 37.7705 41.5782 35.0351 44.6862 34.7692C47.7943 34.5033 50.5295 36.8074 50.7955 39.9156C50.8229 40.236 50.8229 40.5583 50.7955 40.8787V42.5788C50.9928 45.7452 48.5853 48.4722 45.4197 48.6697C45.3374 48.6748 45.2566 48.678 45.1743 48.6797ZM45.1743 36.8206C43.1152 36.8777 41.4932 38.593 41.5509 40.6517C41.5522 40.7459 41.5591 40.8399 41.5687 40.9336V42.6335C41.2931 44.6212 42.6818 46.4554 44.6698 46.7303C46.6577 47.0053 48.4908 45.617 48.7664 43.6294C48.8116 43.299 48.8116 42.964 48.7664 42.6335V40.8787C48.9488 38.8273 47.4351 37.0161 45.3827 36.8333C45.3143 36.8271 45.2442 36.8228 45.1743 36.8206Z" fill="#8E3EDB"/>
<path d="M13.292 34.1458C13.3005 35.44 14.3558 36.4812 15.6491 36.472H19V34.3769H15.6491H15.6171C15.4813 34.3678 15.3783 34.2506 15.3871 34.1152V17.8015C15.3865 17.7908 15.3865 17.78 15.3871 17.7691C15.396 17.6337 15.5131 17.5304 15.6491 17.5397H38.7562C38.901 17.5397 39.0179 17.6567 39.0179 17.8015V34.1152C39.0179 34.26 38.901 34.3769 38.7562 34.3769H35.5V36.472H38.7562C40.0578 36.472 41.1131 35.4168 41.1131 34.1152V17.8015C41.1131 16.4998 40.0578 15.4446 38.7562 15.4446H15.6491H15.6181C14.3249 15.4531 13.2837 16.5083 13.292 17.8015V34.1152V34.1458Z" fill="#8E3EDB"/>
<path fill-rule="evenodd" clip-rule="evenodd" d="M35.6901 17.5396H18.6524V9.08249C18.37 4.40306 21.9345 0.380956 26.6136 0.0986957C31.2936 -0.183724 35.3157 3.38084 35.5976 8.06027C35.6176 8.40068 35.6176 8.74191 35.5976 9.08249L35.6901 17.5396ZM20.809 15.4447H33.595V9.08249C33.595 5.55176 30.7327 2.68952 27.202 2.68952C23.6713 2.68952 20.809 5.55176 20.809 9.08249V15.4447Z" fill="#8E3EDB"/>
</svg>
