<svg width="33" height="32" viewBox="0 0 33 32" fill="none" xmlns="http://www.w3.org/2000/svg">
<path fill-rule="evenodd" clip-rule="evenodd" d="M12.1075 24.0768C12.1075 24.3731 12.3556 24.6073 12.6518 24.6073H14.0367C14.333 24.6073 14.5672 24.3662 14.5672 24.0768C14.5672 23.7874 14.3261 23.5463 14.0367 23.5463H12.7001C12.4038 23.5187 12.142 23.7392 12.1144 24.0423C12.1144 24.0561 12.1144 24.0699 12.1144 24.0837L12.1075 24.0768Z" fill="#8E3EDB"/>
<path fill-rule="evenodd" clip-rule="evenodd" d="M21.7258 23.5392C21.4433 23.5392 21.216 23.7528 21.1815 24.0353C21.1677 24.1731 21.216 24.3177 21.3124 24.4211C21.4089 24.5313 21.5398 24.6002 21.6776 24.614C21.9601 24.614 22.2012 24.4004 22.2219 24.1179C22.2426 23.8286 22.029 23.5736 21.7327 23.5461H21.7258V23.5392Z" fill="#8E3EDB"/>
<path fill-rule="evenodd" clip-rule="evenodd" d="M20.7128 12.5175H30.7996C31.8399 12.5175 32.6874 11.6697 32.6874 10.6288V4.58377C32.6874 3.54294 31.8537 2.70201 30.8133 2.69512H29.3182V1.88865C29.3182 0.847825 28.4708 0 27.4304 0H24.1233C23.0829 0 22.2424 0.847825 22.2424 1.88865V2.69512H20.7541C19.7275 2.72269 18.9145 3.56362 18.9214 4.58377V10.6288C18.9214 11.6352 19.7069 12.4692 20.7128 12.5175ZM23.262 1.88865C23.262 1.44061 23.6272 1.07529 24.075 1.07529H27.4304C27.8783 1.07529 28.2434 1.44061 28.2434 1.88865V2.69512H23.2552V1.88865H23.262ZM19.886 4.58377C19.886 4.13573 20.2512 3.77041 20.699 3.77041H30.7858C31.2336 3.77041 31.5988 4.13573 31.5988 4.58377V5.39024H19.8791V4.58377H19.886ZM19.886 6.41728H21.512V7.22375C21.4707 7.52014 21.6843 7.78896 21.9805 7.83032C22.2768 7.87168 22.5524 7.658 22.5868 7.3616C22.5868 7.31335 22.5868 7.2651 22.5868 7.22375V6.41728H28.9117V7.22375C28.8704 7.52014 29.084 7.78896 29.3802 7.83032C29.6765 7.87168 29.9521 7.658 29.9866 7.3616C29.9866 7.31335 29.9866 7.2651 29.9866 7.22375V6.41728H31.461V6.55514H31.5919V10.5806C31.5919 11.0286 31.2267 11.3939 30.7789 11.3939H20.6921C20.2443 11.3939 19.8791 11.0286 19.8791 10.5806L19.8998 6.41728H19.886Z" fill="#8E3EDB"/>
<path fill-rule="evenodd" clip-rule="evenodd" d="M9.37918 17.9559L9.48253 18.1558H5.99626C4.95588 18.1558 4.11532 18.9967 4.11532 20.0376C4.11532 20.072 4.11532 20.1134 4.11532 20.1479V20.3891L4.06709 20.4374C2.50998 21.8435 1.53162 23.7804 1.31804 25.869L0.718612 31.4177C0.697942 31.5556 0.739284 31.6934 0.828852 31.8037C1.00799 32.0243 1.33181 32.0657 1.55918 31.8933C1.6763 31.8037 1.7521 31.6728 1.77277 31.528V31.4522L2.3584 25.9448C2.50309 24.4973 3.07495 23.1325 3.9982 22.0089L4.21867 21.7401L4.66652 28.1643H4.52872C4.25313 28.1781 4.03265 28.4055 4.03265 28.6881V30.0391C4.03265 30.5079 4.20489 30.9559 4.52182 31.2937C4.8801 31.6865 5.38306 31.914 5.91358 31.9209H20.7061C21.2367 31.9209 21.7465 31.6934 22.0979 31.2937C22.4148 30.949 22.5871 30.501 22.5871 30.0391V28.7709C22.5871 28.4951 22.3666 28.2608 22.091 28.247H21.9532L22.0565 26.7995C22.0703 26.5031 21.8567 26.2481 21.5605 26.2205C21.278 26.2205 21.0368 26.4411 21.0093 26.7237L20.9059 28.2539H5.77578L5.21771 20.0789C5.20393 19.6309 5.55531 19.2518 6.00315 19.238C6.00315 19.238 6.01693 19.238 6.02382 19.238H20.6992C21.1471 19.238 21.5054 19.5964 21.5054 20.0445V20.1754L21.3676 21.3403C21.3676 21.4782 21.4089 21.616 21.4985 21.7263C21.588 21.8366 21.7258 21.8986 21.8636 21.9124C21.9945 21.9262 22.1254 21.8849 22.2288 21.8021L22.3321 21.7125L22.4217 21.8159C23.4552 22.9808 24.0959 24.4352 24.2544 25.9792L24.6127 29.3705C24.344 29.7841 24.2062 30.2666 24.1993 30.756V31.4384C24.1993 31.7279 24.4404 31.9623 24.7298 31.9692H29.4356C29.7319 31.9692 29.973 31.7417 29.9799 31.4453V30.756C29.9799 29.3499 28.8431 28.2125 27.4375 28.2125H26.7692C26.4385 28.2125 26.1147 28.2746 25.8046 28.3986L25.6324 28.4745L25.3499 25.8345C25.1156 23.739 24.1166 21.809 22.5457 20.4029V20.0445C22.5388 19.0105 21.6983 18.1765 20.6648 18.1627H17.1923L17.2956 17.9628C17.709 17.1494 17.9226 16.2534 17.9226 15.3366C17.9226 12.4485 15.8763 10.098 13.3409 10.098C10.8054 10.098 8.7591 12.4485 8.7591 15.3366C8.7591 16.2465 8.97268 17.1494 9.39297 17.9628L9.37918 17.9559ZM21.5191 29.3568V30.1701C21.5191 30.6181 21.1609 30.9766 20.713 30.9766H5.92047C5.47262 30.9766 5.11435 30.6181 5.11435 30.1701V29.3568H21.5191ZM25.2672 30.8318C25.2672 30.3907 25.467 29.9633 25.8115 29.6876C26.0733 29.4808 26.3972 29.3636 26.7279 29.3568H27.3962C28.2161 29.3568 28.8775 30.0185 28.8844 30.8318V30.9697H25.219L25.2741 30.8318H25.2672ZM13.3477 11.2078C15.2769 11.2078 16.8409 13.0413 16.8409 15.3711C16.8409 16.3637 16.5171 17.3287 15.9246 18.1213V18.1765H10.7916V18.1213C10.1991 17.3287 9.87526 16.3637 9.87526 15.3711C9.82703 13.0413 11.3979 11.1664 13.3202 11.1664L13.3477 11.2009V11.2078Z" fill="#8E3EDB"/>
<path fill-rule="evenodd" clip-rule="evenodd" d="M0.821852 4.27359C1.15946 4.63202 4.19789 7.80275 7.93909 7.80275C11.6803 7.80275 14.7049 4.62513 15.0494 4.27359C15.2286 4.0668 15.2286 3.75662 15.0494 3.54984C15.0494 3.54984 11.9283 0 7.93909 0C4.19789 0 1.15946 3.17762 0.821852 3.52916C0.642716 3.73595 0.642716 4.04612 0.821852 4.25291V4.27359ZM11.5425 2.43319L11.384 2.05408L11.7354 2.26776C12.4795 2.7089 13.1685 3.22587 13.7955 3.81866L13.9057 3.92205L13.7955 4.02545C13.1685 4.61823 12.4726 5.1352 11.7354 5.57635L11.384 5.79003L11.5425 5.41092C11.9352 4.4597 11.9352 3.3913 11.5425 2.44008V2.43319ZM7.94598 1.09597C9.50309 1.09597 10.7708 2.36426 10.7639 3.92895C10.7639 5.48674 9.49619 6.75503 7.93219 6.74814C7.1812 6.74814 6.45777 6.44485 5.93414 5.9141C5.40362 5.39024 5.10736 4.67338 5.12114 3.92205C5.11425 2.36426 6.3682 1.08908 7.92531 1.07529C7.92531 1.07529 7.93909 1.07529 7.94598 1.07529V1.09597ZM2.0758 3.84623C2.70967 3.26034 3.39866 2.73648 4.13588 2.29533L4.48726 2.08165L4.32879 2.46076C3.93607 3.41198 3.93607 4.48038 4.32879 5.4316L4.48726 5.8107L4.13588 5.59702C3.40555 5.1352 2.72345 4.60445 2.11026 3.99787L2.00001 3.89448L2.0758 3.83934V3.84623Z" fill="#8E3EDB"/>
</svg>
