<svg width="33" height="32" viewBox="0 0 33 32" fill="none" xmlns="http://www.w3.org/2000/svg">
<g clip-path="url(#clip0_174_13370)">
<path fill-rule="evenodd" clip-rule="evenodd" d="M2.83491 17.2393H1.44692C0.8037 17.2393 0.278971 16.7146 0.270508 16.0629V13.3208C0.270508 12.6776 0.795237 12.1528 1.44692 12.1528H2.83491C3.48659 12.1528 4.01132 12.6776 4.01132 13.3292V16.0714C4.01132 16.7231 3.48659 17.2478 2.83491 17.2478V17.2393ZM1.44692 13.1938C1.37921 13.1938 1.31997 13.2531 1.31997 13.3208V16.0629C1.31997 16.1306 1.37921 16.1899 1.44692 16.1899H2.83491C2.90262 16.1899 2.96186 16.1306 2.97032 16.0629V13.3208C2.97032 13.2531 2.91108 13.1938 2.83491 13.1938H1.44692Z" fill="#8E3EDB"/>
<path fill-rule="evenodd" clip-rule="evenodd" d="M22.8337 16.7146H21.7928V13.3462C21.7928 13.2615 21.725 13.1938 21.6404 13.1938H20.2863C20.2016 13.1938 20.1339 13.2615 20.1339 13.3462V14.7003H19.0845V13.3462C19.0845 12.686 19.6177 12.1528 20.2778 12.1528H21.6319C22.2921 12.1528 22.8168 12.6945 22.8168 13.3462V16.7146H22.8337Z" fill="#8E3EDB"/>
<path fill-rule="evenodd" clip-rule="evenodd" d="M10.7309 16.7146H9.68994V13.3462C9.68994 12.686 10.2231 12.1528 10.8833 12.1528H12.229C12.8891 12.1528 13.4223 12.686 13.4223 13.3462V14.7003H12.3728V13.3462C12.3728 13.2615 12.3051 13.1938 12.2205 13.1938H10.8748C10.7902 13.1938 10.7225 13.2531 10.714 13.3377V16.7146H10.7309Z" fill="#8E3EDB"/>
<path fill-rule="evenodd" clip-rule="evenodd" d="M27.7338 24.636H26.3458C25.7026 24.636 25.1779 24.1112 25.1694 23.4596V20.7259C25.1694 20.0827 25.7026 19.5664 26.3458 19.5664H27.7338C28.3855 19.5664 28.9102 20.0911 28.9102 20.7428V23.4765C28.9102 24.1197 28.3771 24.636 27.7338 24.636ZM26.3374 20.5989C26.2697 20.5989 26.2104 20.6582 26.2104 20.7344V23.468C26.2104 23.5357 26.2697 23.595 26.3374 23.595H27.7254C27.7931 23.595 27.8523 23.5442 27.8608 23.4765V20.7344C27.8608 20.6582 27.8015 20.5989 27.7254 20.5989H26.3374Z" fill="#8E3EDB"/>
<path fill-rule="evenodd" clip-rule="evenodd" d="M27.7086 32.0333H27.04V30.9923H27.7086C27.7932 30.9923 27.8694 30.9246 27.8694 30.8315V28.1401C27.8694 28.0555 27.8017 27.9793 27.7086 27.9793H26.3629C26.2783 27.9793 26.2106 28.0555 26.2106 28.1401V28.8087H25.1611V28.1401C25.1611 27.48 25.6943 26.9468 26.3545 26.9468H27.7001C28.3603 26.9468 28.8935 27.48 28.8935 28.1401V30.8315C28.8935 31.4916 28.3603 32.0248 27.7001 32.0248L27.7086 32.0333Z" fill="#8E3EDB"/>
<path fill-rule="evenodd" clip-rule="evenodd" d="M6.33008 12H7.37107V17.3827H6.33008V12Z" fill="#8E3EDB"/>
<path fill-rule="evenodd" clip-rule="evenodd" d="M15.75 12H16.791V14.6914H15.75V12Z" fill="#8E3EDB"/>
<path fill-rule="evenodd" clip-rule="evenodd" d="M31.2295 19.3975H32.2705V24.7802H31.2295V19.3975Z" fill="#8E3EDB"/>
<path fill-rule="evenodd" clip-rule="evenodd" d="M31.2295 26.811H32.2705V32.1937H31.2295V26.811Z" fill="#8E3EDB"/>
<path fill-rule="evenodd" clip-rule="evenodd" d="M31.1025 17.239H29.7145C29.0628 17.239 28.5381 16.7143 28.5381 16.0626V13.3205C28.5381 12.6688 29.0628 12.144 29.7145 12.144H31.1025C31.7542 12.144 32.2789 12.6688 32.2789 13.3205V16.0626C32.2789 16.7143 31.7542 17.239 31.1025 17.239ZM29.706 13.1935C29.6383 13.1935 29.5791 13.2527 29.5706 13.3205V16.0626C29.5706 16.1303 29.6299 16.1895 29.706 16.1895H31.094C31.1617 16.1895 31.221 16.1303 31.221 16.0626V13.3205C31.221 13.2527 31.1617 13.1935 31.094 13.1935H29.706Z" fill="#8E3EDB"/>
<path fill-rule="evenodd" clip-rule="evenodd" d="M25.1694 12H26.2104V17.3827H25.1694V12Z" fill="#8E3EDB"/>
<path fill-rule="evenodd" clip-rule="evenodd" d="M6.20307 24.6358H4.81508C4.1634 24.6358 3.63867 24.1111 3.63867 23.4594V20.7257C3.63867 20.074 4.1634 19.5493 4.81508 19.5493H6.20307C6.85475 19.5493 7.37948 20.074 7.37948 20.7257V23.4594C7.37948 24.1026 6.85475 24.6273 6.20307 24.6358ZM4.80662 20.5988C4.73045 20.5988 4.6712 20.658 4.6712 20.7342V23.4679C4.6712 23.5356 4.73045 23.5948 4.79815 23.5948H6.19461C6.26232 23.5948 6.32156 23.5356 6.32156 23.4679V20.7342C6.32156 20.6665 6.26232 20.6072 6.19461 20.5988H4.80662Z" fill="#8E3EDB"/>
<path fill-rule="evenodd" clip-rule="evenodd" d="M0.270508 19.3975H1.3115V24.7802H0.270508V19.3975Z" fill="#8E3EDB"/>
<path fill-rule="evenodd" clip-rule="evenodd" d="M2.83491 32.0333H1.44692C0.795237 32.0333 0.270508 31.5085 0.270508 30.8569V28.1232C0.270508 27.4715 0.795237 26.9468 1.44692 26.9468H2.83491C3.48659 26.9468 4.01132 27.4715 4.01132 28.1232V30.8569C4.01132 31.5001 3.48659 32.0333 2.83491 32.0333ZM1.44692 27.9962C1.37921 27.9962 1.31997 28.0555 1.31997 28.1316V30.8653C1.31997 30.933 1.37921 30.9923 1.44692 31.0007H2.83491C2.91108 31.0007 2.97032 30.9415 2.97032 30.8653V28.1316C2.97032 28.0555 2.91108 27.9962 2.83491 27.9962H1.44692Z" fill="#8E3EDB"/>
<path fill-rule="evenodd" clip-rule="evenodd" d="M21.6573 32.0332H20.3032C19.6431 32.0332 19.1099 31.5 19.1099 30.8398V29.4941H20.1593V30.8398C20.1593 30.9245 20.2186 30.9922 20.3032 31.0006H21.6658C21.7504 31.0006 21.8181 30.9329 21.8181 30.8483V30.1712H22.8422V30.8398C22.8422 31.4915 22.3175 32.0247 21.6658 32.0332H21.6573Z" fill="#8E3EDB"/>
<path fill-rule="evenodd" clip-rule="evenodd" d="M15.5976 32.0332H14.2519C13.5918 32.0332 13.0586 31.5 13.0586 30.8398V29.4941H14.1081V30.8398C14.1081 30.9245 14.1673 30.9922 14.2519 31.0006H15.6061C15.6907 31.0006 15.7669 30.9329 15.7669 30.8398V29.4941H16.8079V30.8398C16.8079 31.5 16.2747 32.0332 15.6145 32.0332H15.5976Z" fill="#8E3EDB"/>
<path fill-rule="evenodd" clip-rule="evenodd" d="M6.33008 26.811H7.37107V32.1937H6.33008V26.811Z" fill="#8E3EDB"/>
<path fill-rule="evenodd" clip-rule="evenodd" d="M9.69824 27.48H10.7392V32.1941H9.69824V27.48Z" fill="#8E3EDB"/>
<path fill-rule="evenodd" clip-rule="evenodd" d="M16.2744 28.6727C12.6437 28.6727 9.68994 25.736 9.68994 22.0967C9.68994 18.4659 12.6267 15.5122 16.266 15.5122C19.8968 15.5122 22.8505 18.449 22.8505 22.0882C22.8505 25.7275 19.9052 28.6643 16.2744 28.6727ZM16.2744 16.5617C13.2192 16.5617 10.7394 19.0414 10.7394 22.0967C10.7394 25.152 13.2192 27.6318 16.2744 27.6318C19.3297 27.6318 21.8095 25.152 21.8095 22.0967C21.7926 19.0499 19.3213 16.5871 16.2744 16.5871V16.5617Z" fill="#8E3EDB"/>
<path fill-rule="evenodd" clip-rule="evenodd" d="M18.3481 24.6358H16.9601C16.3084 24.6358 15.7837 24.1111 15.7837 23.4594V20.7257C15.7837 20.074 16.3084 19.5493 16.9601 19.5493H18.3481C18.9998 19.5493 19.5245 20.074 19.5245 20.7257V23.4594C19.5245 24.1026 18.9998 24.6273 18.3481 24.6358ZM16.9601 20.5988C16.8839 20.5988 16.8247 20.658 16.8247 20.7342V23.4679C16.8247 23.5356 16.8839 23.5948 16.9516 23.5948H18.3481C18.4158 23.5948 18.475 23.5356 18.475 23.4679V20.7342C18.475 20.6665 18.4158 20.6072 18.3481 20.5988H16.9601Z" fill="#8E3EDB"/>
<path fill-rule="evenodd" clip-rule="evenodd" d="M13.0586 19.3975H14.0996V24.7802H13.0586V19.3975Z" fill="#8E3EDB"/>
<path fill-rule="evenodd" clip-rule="evenodd" d="M19.9395 26.5063L20.6758 25.77L26.0585 31.1527L25.3222 31.889L19.9395 26.5063Z" fill="#8E3EDB"/>
</g>
<defs>
<clipPath id="clip0_174_13370">
<rect width="32" height="32" fill="white" transform="translate(0.65625)"/>
</clipPath>
</defs>
</svg>
