<?xml version="1.0" encoding="UTF-8"?>
<svg xmlns="http://www.w3.org/2000/svg" xmlns:xlink="http://www.w3.org/1999/xlink" width="45px" height="45px" viewBox="0 0 45 45" version="1.1">
<g id="surface1">
<path style=" stroke:none;fill-rule:evenodd;fill:rgb(55.686277%,24.313726%,85.882354%);fill-opacity:1;" d="M 5.945312 44.75 L 4.585938 44.058594 C 7.296875 38.4375 6.242188 33.605469 5.023438 30.027344 C 4.644531 29.039062 4.183594 28.082031 3.640625 27.171875 C 1.6875 24.082031 0.625 20.511719 0.578125 16.851562 C 0.578125 10.507812 6.066406 0.320312 20.703125 0.0117188 L 21.285156 0.0117188 C 36.113281 0.0117188 39.144531 12.230469 39.441406 13.636719 C 39.804688 15.386719 39.773438 17.191406 39.355469 18.929688 C 39.289062 19.191406 39.242188 19.460938 39.222656 19.730469 C 39.222656 20.5 41.417969 23.550781 42.1875 24.550781 C 42.460938 24.933594 42.667969 25.230469 42.769531 25.382812 C 43.535156 26.324219 43.394531 27.707031 42.457031 28.472656 C 42.308594 28.59375 42.140625 28.695312 41.964844 28.777344 C 41.503906 29.050781 41.144531 29.238281 40.867188 29.378906 L 40.691406 29.46875 C 40.769531 29.644531 40.902344 29.917969 41.132812 30.355469 C 41.527344 31.074219 41.265625 31.976562 40.546875 32.367188 C 40.328125 32.492188 40.078125 32.554688 39.824219 32.550781 L 35.257812 32.550781 L 35.257812 31.070312 L 39.824219 31.070312 C 39.179688 29.894531 39.023438 29.433594 39.144531 29.027344 C 39.265625 28.621094 39.683594 28.324219 40.242188 28.074219 C 40.496094 27.941406 40.835938 27.777344 41.265625 27.523438 C 41.503906 27.414062 41.683594 27.210938 41.769531 26.964844 C 41.792969 26.703125 41.722656 26.441406 41.570312 26.230469 C 41.472656 26.085938 41.285156 25.8125 41.023438 25.460938 C 39.066406 22.738281 37.851562 20.859375 37.785156 19.863281 C 37.785156 19.453125 37.835938 19.046875 37.9375 18.652344 C 38.320312 17.125 38.355469 15.53125 38.035156 13.988281 C 37.761719 12.703125 34.984375 1.550781 21.328125 1.550781 L 20.789062 1.550781 C 7.199219 1.835938 2.125 11.113281 2.125 16.917969 C 2.164062 20.3125 3.144531 23.625 4.960938 26.492188 C 5.542969 27.480469 6.039062 28.515625 6.453125 29.589844 C 7.757812 33.441406 8.890625 38.644531 5.945312 44.75 Z M 5.945312 44.75 "/>
<path style=" stroke:none;fill-rule:evenodd;fill:rgb(55.686277%,24.313726%,85.882354%);fill-opacity:1;" d="M 27.257812 44.804688 L 25.808594 44.453125 C 26.332031 42.257812 27.507812 39.445312 29.101562 38.796875 L 29.671875 40.183594 C 28.945312 40.46875 27.871094 42.277344 27.257812 44.804688 Z M 27.257812 44.804688 "/>
<path style=" stroke:none;fill-rule:evenodd;fill:rgb(55.686277%,24.313726%,85.882354%);fill-opacity:1;" d="M 33.972656 40.9375 C 31.539062 40.78125 29.136719 40.320312 26.816406 39.566406 C 25.71875 39.214844 25.113281 37.523438 24.226562 34.976562 L 23.875 34.011719 L 25.289062 33.507812 L 25.632812 34.484375 C 26.136719 35.933594 26.839844 37.921875 27.277344 38.140625 C 29.5625 38.863281 33.742188 39.832031 35.171875 39.238281 C 36.269531 38.832031 36.269531 38.140625 36.269531 37.21875 C 36.257812 37.101562 36.257812 36.984375 36.269531 36.867188 C 36.320312 36.234375 36.574219 35.636719 36.992188 35.164062 C 37.359375 34.804688 37.535156 34.289062 37.453125 33.78125 L 38.949219 33.617188 C 39.070312 34.507812 38.792969 35.40625 38.191406 36.074219 C 37.953125 36.308594 37.804688 36.613281 37.761719 36.941406 C 37.757812 37.011719 37.757812 37.082031 37.761719 37.152344 C 37.984375 38.664062 37.113281 40.121094 35.675781 40.644531 C 35.128906 40.839844 34.554688 40.9375 33.972656 40.9375 Z M 33.972656 40.9375 "/>
<path style=" stroke:none;fill-rule:evenodd;fill:rgb(55.686277%,24.313726%,85.882354%);fill-opacity:1;" d="M 11.019531 16.097656 C 9 16.097656 7.363281 14.460938 7.363281 12.441406 C 7.363281 10.421875 9 8.785156 11.019531 8.785156 C 13.039062 8.785156 14.675781 10.421875 14.675781 12.441406 C 14.667969 14.457031 13.035156 16.089844 11.019531 16.097656 Z M 11.019531 10.277344 C 9.804688 10.277344 8.824219 11.261719 8.824219 12.472656 C 8.824219 13.6875 9.804688 14.667969 11.019531 14.667969 C 12.230469 14.667969 13.214844 13.6875 13.214844 12.472656 C 13.214844 11.261719 12.230469 10.277344 11.019531 10.277344 Z M 11.019531 10.277344 "/>
<path style=" stroke:none;fill-rule:evenodd;fill:rgb(55.686277%,24.313726%,85.882354%);fill-opacity:1;" d="M 30.460938 16.097656 C 28.441406 16.097656 26.804688 14.460938 26.804688 12.441406 C 26.804688 10.421875 28.441406 8.785156 30.460938 8.785156 C 32.480469 8.785156 34.117188 10.421875 34.117188 12.441406 C 34.113281 14.457031 32.476562 16.089844 30.460938 16.097656 Z M 30.460938 10.277344 C 29.25 10.277344 28.265625 11.261719 28.265625 12.472656 C 28.265625 13.6875 29.25 14.667969 30.460938 14.667969 C 31.675781 14.667969 32.65625 13.6875 32.65625 12.472656 C 32.65625 11.261719 31.675781 10.277344 30.460938 10.277344 Z M 30.460938 10.277344 "/>
<path style=" stroke:none;fill-rule:evenodd;fill:rgb(55.686277%,24.313726%,85.882354%);fill-opacity:1;" d="M 20.710938 11.242188 C 18.695312 11.238281 17.0625 9.597656 17.066406 7.578125 C 17.074219 5.558594 18.714844 3.925781 20.734375 3.933594 C 22.75 3.9375 24.378906 5.574219 24.378906 7.589844 C 24.378906 9.605469 22.742188 11.242188 20.722656 11.242188 C 20.71875 11.242188 20.714844 11.242188 20.710938 11.242188 Z M 20.710938 5.4375 C 19.5 5.4375 18.515625 6.417969 18.515625 7.632812 C 18.515625 8.84375 19.5 9.828125 20.710938 9.828125 C 21.925781 9.828125 22.910156 8.84375 22.910156 7.632812 C 22.910156 6.417969 21.925781 5.4375 20.710938 5.4375 Z M 20.710938 5.4375 "/>
<path style=" stroke:none;fill-rule:evenodd;fill:rgb(55.686277%,24.313726%,85.882354%);fill-opacity:1;" d="M 19.964844 10.496094 L 21.46875 10.496094 L 21.46875 38.613281 L 19.964844 38.613281 Z M 19.964844 10.496094 "/>
<path style=" stroke:none;fill-rule:evenodd;fill:rgb(55.686277%,24.313726%,85.882354%);fill-opacity:1;" d="M 25.347656 24.066406 L 23.84375 24.066406 L 23.84375 17.941406 L 27.9375 13.84375 L 29 14.910156 L 25.347656 18.566406 Z M 25.347656 24.066406 "/>
<path style=" stroke:none;fill-rule:evenodd;fill:rgb(55.686277%,24.313726%,85.882354%);fill-opacity:1;" d="M 17.585938 24.066406 L 16.089844 24.066406 L 16.089844 18.566406 L 12.433594 14.910156 L 13.488281 13.84375 L 17.585938 17.941406 Z M 17.585938 24.066406 "/>
<path style=" stroke:none;fill-rule:evenodd;fill:rgb(55.686277%,24.313726%,85.882354%);fill-opacity:1;" d="M 10.054688 25.789062 C 8.035156 25.789062 6.398438 24.152344 6.398438 22.132812 C 6.398438 20.113281 8.035156 18.476562 10.054688 18.476562 C 12.058594 18.476562 13.691406 20.09375 13.707031 22.101562 C 13.726562 24.121094 12.105469 25.769531 10.085938 25.789062 C 10.074219 25.789062 10.0625 25.789062 10.054688 25.789062 Z M 10.054688 19.972656 C 8.839844 19.972656 7.859375 20.953125 7.859375 22.167969 C 7.859375 23.378906 8.839844 24.363281 10.054688 24.363281 C 11.265625 24.363281 12.25 23.378906 12.25 22.167969 C 12.25 20.953125 11.265625 19.972656 10.054688 19.972656 Z M 10.054688 19.972656 "/>
<path style=" stroke:none;fill-rule:evenodd;fill:rgb(55.686277%,24.313726%,85.882354%);fill-opacity:1;" d="M 16.617188 44.429688 L 15.125 44.429688 L 15.125 28.257812 L 11.457031 24.605469 L 12.523438 23.539062 L 16.617188 27.632812 Z M 16.617188 44.429688 "/>
<path style=" stroke:none;fill-rule:evenodd;fill:rgb(55.686277%,24.313726%,85.882354%);fill-opacity:1;" d="M 31.382812 25.789062 C 29.363281 25.789062 27.726562 24.152344 27.726562 22.132812 C 27.726562 20.113281 29.363281 18.476562 31.382812 18.476562 C 33.390625 18.476562 35.023438 20.09375 35.039062 22.101562 C 35.050781 24.125 33.421875 25.777344 31.394531 25.789062 C 31.390625 25.789062 31.386719 25.789062 31.382812 25.789062 Z M 31.382812 19.972656 C 30.171875 19.972656 29.1875 20.953125 29.1875 22.167969 C 29.1875 23.378906 30.171875 24.363281 31.382812 24.363281 C 32.597656 24.363281 33.578125 23.378906 33.578125 22.167969 C 33.578125 20.953125 32.597656 19.972656 31.382812 19.972656 Z M 31.382812 19.972656 "/>
<path style=" stroke:none;fill-rule:evenodd;fill:rgb(55.686277%,24.313726%,85.882354%);fill-opacity:1;" d="M 25.347656 30.851562 L 23.84375 30.851562 L 23.84375 28.609375 L 28.914062 23.539062 L 29.96875 24.605469 L 25.347656 29.226562 Z M 25.347656 30.851562 "/>
</g>
</svg>
