<svg width="60" height="60" viewBox="0 0 60 60" fill="none" xmlns="http://www.w3.org/2000/svg">
<path fill-rule="evenodd" clip-rule="evenodd" d="M29.8894 46.9483C20.56 46.9562 12.9911 39.3682 12.9824 29.9999C12.9739 20.6319 20.5314 13.0309 29.861 13.023C39.1904 13.0151 46.7595 20.6032 46.768 29.9712C46.768 29.9808 46.768 29.9903 46.768 29.9999C46.7522 39.3538 39.2048 46.9325 29.8894 46.9483ZM29.8894 15.1146C21.7027 15.1304 15.0785 21.8077 15.094 30.0286C15.1097 38.2494 21.7598 44.901 29.9465 44.8853C38.1219 44.8694 44.742 38.2096 44.742 29.9999C44.7263 21.7744 38.0804 15.1146 29.8894 15.1146Z" fill="#8E3EDB"/>
<path fill-rule="evenodd" clip-rule="evenodd" d="M29.8899 50.5582C29.3206 50.5582 28.8555 50.0988 28.8484 49.5267V42.3634C28.9155 41.7898 29.4335 41.3794 30.0041 41.447C30.4834 41.5035 30.8616 41.8826 30.9173 42.3634V49.5267C30.9173 50.0963 30.4578 50.5582 29.8899 50.5582Z" fill="#8E3EDB"/>
<path fill-rule="evenodd" clip-rule="evenodd" d="M29.8899 18.6532C29.3206 18.6532 28.8555 18.1938 28.8484 17.6216V10.4584C28.9155 9.88472 29.4335 9.47439 30.0041 9.54195C30.4834 9.59851 30.8616 9.9777 30.9173 10.4584V17.6216C30.9173 18.1913 30.4578 18.6532 29.8899 18.6532Z" fill="#8E3EDB"/>
<path fill-rule="evenodd" clip-rule="evenodd" d="M29.8908 7.99416C27.6921 8.00207 25.9045 6.21893 25.8958 4.01151C25.8873 1.80392 27.6636 0.00792932 29.8622 2.61683e-05C32.0609 -0.00787675 33.8485 1.77526 33.8572 3.98285C33.8572 3.98766 33.8572 3.99229 33.8572 3.99709C33.8499 6.19584 32.0807 7.97853 29.8908 7.99416ZM29.8908 2.06303C28.8264 2.05513 27.9589 2.91454 27.9503 3.98268C27.9432 5.05083 28.7978 5.9231 29.8622 5.93118C30.9266 5.93908 31.794 5.0795 31.8025 4.01136C31.8025 4.00671 31.8025 4.0019 31.8025 3.99709C31.8111 2.93686 30.9608 2.07094 29.905 2.06303C29.9006 2.06303 29.8949 2.06303 29.8908 2.06303Z" fill="#8E3EDB"/>
<path fill-rule="evenodd" clip-rule="evenodd" d="M29.8908 59.9999C27.6921 60.0079 25.9045 58.2247 25.8958 56.0171C25.8873 53.8097 27.6636 52.0137 29.8622 52.0056C32.0609 51.9977 33.8485 53.781 33.8572 55.9885C33.8572 55.9931 33.8572 55.9981 33.8572 56.0027C33.8572 58.2047 32.0837 59.992 29.8908 59.9999ZM29.8908 54.0687C28.8264 54.0609 27.9589 54.9203 27.9503 55.9885C27.9432 57.0564 28.7978 57.9289 29.8622 57.9368C30.9266 57.9445 31.794 57.0851 31.8025 56.0171C31.8025 56.0122 31.8025 56.0075 31.8025 56.0027C31.8025 54.9402 30.9494 54.0766 29.8908 54.0687Z" fill="#8E3EDB"/>
<path fill-rule="evenodd" clip-rule="evenodd" d="M45.7128 46.9334C45.4375 46.9336 45.1736 46.8195 44.9853 46.6183L38.1795 39.7846C37.7102 39.4648 37.5875 38.8234 37.9056 38.3518C38.2238 37.8804 38.863 37.7573 39.3325 38.0771C39.4408 38.1504 39.5336 38.2437 39.6064 38.3518L46.412 45.1856C46.8043 45.5822 46.8043 46.2217 46.412 46.6183C46.2293 46.8126 45.9782 46.9259 45.7128 46.9334Z" fill="#8E3EDB"/>
<path fill-rule="evenodd" clip-rule="evenodd" d="M18.0772 19.1835C17.8061 19.1796 17.5449 19.072 17.3496 18.8825L15.9227 17.4499C15.6046 16.9785 15.7273 16.337 16.1968 16.0173C16.5448 15.7804 17.0014 15.7804 17.3496 16.0173L18.7763 17.4499C19.1786 17.852 19.1786 18.5052 18.7791 18.9087C18.585 19.1035 18.3225 19.2128 18.0486 19.2121L18.0772 19.1835Z" fill="#8E3EDB"/>
<path fill-rule="evenodd" clip-rule="evenodd" d="M48.1958 52.378C45.997 52.3974 44.1993 50.6237 44.1808 48.4163C44.171 47.3458 44.5889 46.3166 45.3422 45.5586C46.9174 44.056 49.3886 44.056 50.9636 45.5586C52.516 47.1219 52.5131 49.6526 50.9565 51.2113C50.2017 51.9672 49.1759 52.3875 48.1102 52.378H48.1958ZM48.1958 46.4613C47.1315 46.4684 46.2753 47.3402 46.2825 48.4084C46.2867 48.9135 46.4864 49.3975 46.8403 49.7564C47.5965 50.4876 48.7949 50.4876 49.5511 49.7564C50.3002 48.9974 50.2944 47.7729 49.5383 47.0212C49.1803 46.6657 48.6994 46.4647 48.1958 46.4613Z" fill="#8E3EDB"/>
<path fill-rule="evenodd" clip-rule="evenodd" d="M12.5984 18.3377C9.44665 18.3432 6.88708 15.7819 6.88136 12.6169C6.87563 9.45193 9.42676 6.8819 12.5784 6.87647C15.7315 6.87105 18.2897 9.43241 18.2954 12.5973C18.2983 14.1287 17.6904 15.5976 16.6075 16.6759C15.5418 17.738 14.1007 18.3351 12.5984 18.3377ZM12.5984 9.01108C10.6052 8.98519 8.96875 10.5869 8.94156 12.5885C8.92878 13.5882 9.32832 14.5488 10.0445 15.2432C11.4726 16.615 13.724 16.615 15.1523 15.2432C16.5633 13.8285 16.5633 11.5335 15.1551 10.1172C14.4775 9.43583 13.5572 9.05337 12.5984 9.05416V9.01108Z" fill="#8E3EDB"/>
<path fill-rule="evenodd" clip-rule="evenodd" d="M17.5498 31.0022H10.416C9.84811 31.0022 9.38867 30.5404 9.38867 29.9708C9.38867 29.4011 9.84811 28.9392 10.416 28.9392H17.5498C18.1177 28.9392 18.577 29.4011 18.577 29.9708C18.577 30.5404 18.1177 31.0022 17.5498 31.0022Z" fill="#8E3EDB"/>
<path fill-rule="evenodd" clip-rule="evenodd" d="M48.2098 31.0022H46.5691C46.0012 31.0022 45.5417 30.5404 45.5417 29.9708C45.5417 29.4011 46.0012 28.9392 46.5691 28.9392H48.2098C48.7776 28.9392 49.237 29.4011 49.237 29.9708C49.237 30.5404 48.7776 31.0022 48.2098 31.0022Z" fill="#8E3EDB"/>
<path fill-rule="evenodd" clip-rule="evenodd" d="M3.98062 33.9972C1.782 33.9972 0 32.2076 0 30C0 27.7924 1.782 26.0029 3.98062 26.0029C6.17923 26.0029 7.96124 27.7924 7.96124 30C7.95413 32.2043 6.17647 33.9893 3.98062 33.9972ZM3.98062 28.0659C2.91627 28.0659 2.05453 28.9319 2.05453 30C2.05453 31.0683 2.91627 31.9341 3.98062 31.9341C5.04497 31.9341 5.90671 31.0683 5.90671 30C5.86832 28.9599 5.01645 28.1369 3.98062 28.1375V28.0659Z" fill="#8E3EDB"/>
<path fill-rule="evenodd" clip-rule="evenodd" d="M54.303 35.6876C51.1513 35.693 48.5917 33.1318 48.5859 29.9667C48.5803 26.8018 51.1314 24.2318 54.2831 24.2263C57.4361 24.2209 59.9943 26.7824 60 29.9472C60.0029 31.4785 59.395 32.9474 58.3122 34.0258C57.2507 35.0947 55.8067 35.6928 54.303 35.6876ZM54.303 26.3753C53.3456 26.373 52.4253 26.7545 51.7491 27.4354C50.3537 28.8578 50.3537 31.1421 51.7491 32.5643C53.1772 33.9362 55.4288 33.9362 56.8569 32.5643C58.268 31.1497 58.268 28.8547 56.8597 27.4384C56.8583 27.4374 56.8583 27.4365 56.8569 27.4354C56.1834 26.7505 55.2618 26.3682 54.303 26.3753Z" fill="#8E3EDB"/>
<path fill-rule="evenodd" clip-rule="evenodd" d="M38.9073 21.9769C38.3395 21.9784 37.8786 21.5176 37.8772 20.9481C37.8772 20.6729 37.9857 20.409 38.1797 20.2148L45.1137 13.2521C45.5831 12.9324 46.2223 13.0554 46.5404 13.5268C46.7759 13.8764 46.7759 14.3351 46.5404 14.6847L39.6064 21.6474C39.4238 21.8431 39.1741 21.9612 38.9073 21.9769Z" fill="#8E3EDB"/>
<path fill-rule="evenodd" clip-rule="evenodd" d="M16.8636 44.126C16.6253 44.1297 16.3928 44.0485 16.2073 43.8967C15.8235 43.497 15.8235 42.8639 16.2073 42.4641L17.4343 41.232C17.7525 40.7606 18.3917 40.6374 18.861 40.9572C19.3305 41.2769 19.4531 41.9184 19.1351 42.3898C19.0622 42.498 18.9695 42.5913 18.861 42.6647L17.6342 43.8967C17.4187 44.0735 17.1405 44.1561 16.8636 44.126Z" fill="#8E3EDB"/>
<path fill-rule="evenodd" clip-rule="evenodd" d="M48.1958 15.6014C45.997 15.6208 44.1993 13.8471 44.1808 11.6395C44.171 10.5692 44.5889 9.53994 45.3422 8.78203C46.9174 7.27936 49.3886 7.27936 50.9636 8.78203C52.516 10.3451 52.5131 12.876 50.9565 14.4349C50.2017 15.1906 49.1759 15.6107 48.1102 15.6014H48.1958ZM48.1958 9.68452C47.1315 9.69181 46.2753 10.5636 46.2825 11.6318C46.2867 12.137 46.4864 12.6207 46.8403 12.9798C47.6037 13.6966 48.7892 13.6966 49.5511 12.9798C50.3002 12.2208 50.2944 10.9963 49.5383 10.2446C49.1803 9.88891 48.6994 9.68809 48.1958 9.68452Z" fill="#8E3EDB"/>
<path fill-rule="evenodd" clip-rule="evenodd" d="M12.5969 53.0516C9.44522 53.0648 6.8785 50.51 6.86553 47.3452C6.85275 44.1803 9.39657 41.6037 12.5483 41.5904C15.7001 41.5769 18.2668 44.1319 18.2796 47.2967C18.2868 48.8262 17.6833 50.2946 16.6061 51.3754C15.5417 52.4428 14.1007 53.0453 12.5969 53.0516ZM12.5969 43.725C11.6381 43.7194 10.7179 44.1015 10.0429 44.7851C8.63194 46.1999 8.63056 48.4949 10.0401 49.9112C10.0415 49.912 10.0415 49.9131 10.0429 49.914C11.4711 51.2859 13.7225 51.2859 15.1508 49.914C16.5618 48.4993 16.5618 46.2044 15.1536 44.788C15.1522 44.7871 15.1522 44.7862 15.1508 44.7851C14.4758 44.1015 13.5556 43.7194 12.5969 43.725Z" fill="#8E3EDB"/>
<path fill-rule="evenodd" clip-rule="evenodd" d="M29.889 34.4126C27.4621 34.4126 25.4946 32.437 25.4946 29.9999C25.4946 27.563 27.4621 25.5874 29.889 25.5874C32.3158 25.5874 34.2835 27.563 34.2835 29.9999C34.2748 32.4338 32.3131 34.4047 29.889 34.4126ZM29.889 27.6504C28.5964 27.6504 27.5491 28.7024 27.5491 29.9999C27.5491 31.2976 28.5964 32.3496 29.889 32.3496C31.1818 32.3496 32.229 31.2976 32.229 29.9999C32.2375 28.7103 31.2016 27.6583 29.9175 27.6504C29.9075 27.6504 29.899 27.6504 29.889 27.6504Z" fill="#8E3EDB"/>
<path fill-rule="evenodd" clip-rule="evenodd" d="M31.0888 39.7134H28.6777C28.2738 39.7129 27.9073 39.4784 27.736 39.1117L27.2224 37.9656L26.7943 37.7937L25.6671 38.3523C25.299 38.5229 24.8668 38.4673 24.5543 38.2092L22.6995 36.6474C22.3999 36.3845 22.2729 35.9746 22.3714 35.5874L22.728 34.341L22.514 33.9685L21.2728 33.6533C20.8776 33.558 20.5751 33.238 20.5024 32.8366L20.0885 30.4442C20.0172 30.0456 20.1842 29.6424 20.5166 29.4126L21.6294 28.6533C21.6223 28.5388 21.6223 28.424 21.6294 28.3094L20.8447 27.2207C20.6292 26.8793 20.6292 26.4445 20.8447 26.1031L22.0575 23.9972C22.2659 23.6498 22.6553 23.4545 23.0561 23.4957L24.483 23.6247L24.697 23.4528L24.8111 22.02C24.841 21.6137 25.1022 21.2615 25.4816 21.1175L27.7501 20.3009C28.1284 20.1617 28.552 20.257 28.8346 20.5445L29.819 21.5616H30.0758L31.046 20.5445C31.3286 20.257 31.7522 20.1617 32.1303 20.3009L34.4132 21.1175C34.7897 21.2644 35.0509 21.6151 35.0837 22.02L35.1836 23.4528L35.3976 23.6391L36.8243 23.4957C37.2296 23.4571 37.6191 23.6586 37.8231 24.0114L39.0216 26.1031C39.237 26.4445 39.237 26.8793 39.0216 27.2207L38.2369 28.3094C38.2369 28.4384 38.2369 28.5531 38.2369 28.6676L39.3497 29.4126C39.6822 29.6424 39.8491 30.0456 39.7778 30.4442L39.364 32.8366C39.2927 33.234 38.9973 33.5532 38.6079 33.6533L37.3523 33.9685L37.1382 34.341L37.495 35.5874C37.6077 35.9749 37.4793 36.3927 37.1668 36.6474L35.2121 38.1661C34.9055 38.425 34.4759 38.4811 34.1135 38.3094L32.9865 37.765L32.5442 37.9226L32.0305 39.0687C31.8721 39.4522 31.5027 39.7055 31.0888 39.7134ZM29.3482 37.6504H30.4754L30.9176 36.6905C31.046 36.4006 31.2971 36.1844 31.6025 36.1031C31.9535 36.0178 32.2929 35.8929 32.6155 35.7307C32.9009 35.6019 33.2289 35.6019 33.5142 35.7307L34.4559 36.2033L35.2834 35.5014L34.9982 34.4555C34.914 34.1529 34.9667 33.8282 35.1408 33.5673C35.3449 33.2863 35.5176 32.9837 35.6544 32.6648C35.7857 32.3744 36.0439 32.1621 36.3535 32.0917L37.4094 31.8195L37.5949 30.745L36.6674 30.1146C36.4078 29.9449 36.2395 29.6652 36.2109 29.3553C36.1824 29.0167 36.1253 28.681 36.0396 28.3524C35.9541 28.057 36.0126 27.7384 36.1967 27.4928L36.8673 26.5616L36.3251 25.6161L35.1408 25.745C34.834 25.7706 34.533 25.6605 34.3134 25.4442C34.085 25.222 33.8425 25.0162 33.5857 24.8281C33.3417 24.6485 33.1848 24.3717 33.1576 24.0688L33.072 22.8797L32.059 22.5072L31.2316 23.3668C31.0203 23.5955 30.7136 23.7121 30.4041 23.682C30.1 23.6533 29.7948 23.6533 29.4909 23.682C29.1841 23.7114 28.8803 23.6009 28.6635 23.3811L27.8216 22.5072L26.8087 22.8797L26.723 24.0688C26.6958 24.3793 26.5347 24.6623 26.2807 24.8425C26.021 25.0221 25.7786 25.2234 25.5531 25.4442C25.3376 25.6565 25.0393 25.7614 24.7398 25.7307L23.5699 25.6161L23.0134 26.5472L23.6839 27.4928C23.8694 27.7437 23.9265 28.0668 23.8409 28.3668C23.7538 28.6854 23.6969 29.0116 23.6697 29.341C23.6368 29.6458 23.4757 29.9221 23.2274 30.1003L22.2858 30.745L22.4712 31.8195L23.5413 32.0917C23.8452 32.1661 24.0978 32.3776 24.2262 32.6648C24.366 32.9871 24.5385 33.2942 24.7398 33.5817C24.9196 33.8349 24.9724 34.1578 24.8824 34.4555L24.597 35.5014L25.4247 36.2033L26.3806 35.7307C26.6631 35.5877 26.9969 35.5877 27.2795 35.7307C27.6005 35.8858 27.9343 36.0104 28.2781 36.1031C28.5792 36.1832 28.8303 36.393 28.963 36.6761L29.3482 37.6504Z" fill="#8E3EDB"/>
</svg>
