<?xml version="1.0" encoding="UTF-8"?>
<svg xmlns="http://www.w3.org/2000/svg" xmlns:xlink="http://www.w3.org/1999/xlink" width="46px" height="45px" viewBox="0 0 45 45" version="1.1">
<g id="surface1">
<path style="fill:none;stroke-width:2.12714;stroke-linecap:butt;stroke-linejoin:miter;stroke:rgb(55.686277%,24.313726%,85.882354%);stroke-opacity:1;stroke-miterlimit:10;" d="M 15.848351 30.03125 L 3.208854 35.802083 L 28.503733 48.442708 L 53.76684 35.807292 L 41.127344 30.03125 " transform="matrix(0.737705,0,0,0.75,0,0)"/>
<path style="fill:none;stroke-width:2.12714;stroke-linecap:butt;stroke-linejoin:miter;stroke:rgb(55.686277%,24.313726%,85.882354%);stroke-opacity:1;stroke-miterlimit:10;" d="M 48.715278 43.895833 L 53.76684 45.916667 L 28.503733 58.557292 L 3.208854 45.916667 L 8.265712 43.895833 " transform="matrix(0.737705,0,0,0.75,0,0)"/>
<path style=" stroke:none;fill-rule:evenodd;fill:rgb(55.686277%,24.313726%,85.882354%);fill-opacity:1;" d="M 21.566406 6.804688 C 21.300781 6.464844 20.8125 6.402344 20.472656 6.65625 C 20.414062 6.699219 20.363281 6.75 20.320312 6.804688 L 20.316406 6.8125 L 20.3125 6.816406 C 20.238281 6.921875 20.082031 7.070312 19.835938 7.25 C 19.597656 7.425781 19.289062 7.621094 18.933594 7.824219 C 18.214844 8.234375 17.308594 8.671875 16.347656 9.074219 C 15.386719 9.480469 14.378906 9.84375 13.464844 10.109375 C 12.546875 10.371094 11.746094 10.527344 11.1875 10.527344 C 10.769531 10.527344 10.414062 10.863281 10.414062 11.300781 L 10.414062 20.886719 C 10.417969 22.222656 11.070312 23.523438 11.992188 24.707031 C 12.921875 25.898438 14.15625 27 15.390625 27.945312 C 16.632812 28.890625 17.886719 29.683594 18.863281 30.25 C 19.351562 30.53125 19.773438 30.757812 20.089844 30.921875 C 20.25 31 20.382812 31.066406 20.488281 31.113281 C 20.804688 31.257812 21.082031 31.257812 21.382812 31.109375 C 21.484375 31.058594 21.613281 30.992188 21.769531 30.910156 C 22.082031 30.742188 22.496094 30.503906 22.984375 30.214844 C 23.957031 29.628906 25.210938 28.820312 26.449219 27.886719 C 27.691406 26.953125 28.929688 25.886719 29.859375 24.789062 C 30.78125 23.699219 31.449219 22.527344 31.449219 21.390625 L 31.449219 11.296875 C 31.445312 10.859375 31.085938 10.527344 30.671875 10.527344 C 29.394531 10.527344 27.3125 9.878906 25.414062 9.058594 C 24.472656 8.65625 23.59375 8.214844 22.902344 7.808594 C 22.558594 7.605469 22.261719 7.414062 22.03125 7.238281 C 21.796875 7.0625 21.648438 6.917969 21.574219 6.816406 L 21.570312 6.8125 Z M 11.984375 20.886719 L 11.984375 12.011719 C 13.28125 11.832031 15.078125 11.261719 16.753906 10.570312 C 18.421875 9.886719 20.027344 9.0625 20.941406 8.339844 C 21.835938 9.050781 23.386719 9.882812 25.03125 10.574219 C 26.695312 11.277344 28.507812 11.855469 29.898438 12.023438 L 29.898438 21.390625 C 29.898438 22.039062 29.472656 22.847656 28.707031 23.746094 C 27.957031 24.628906 26.9375 25.53125 25.863281 26.371094 C 23.851562 27.941406 21.703125 29.230469 20.9375 29.621094 C 20.1875 29.25 18.046875 28.042969 16.039062 26.464844 C 14.96875 25.621094 13.945312 24.679688 13.191406 23.710938 C 12.4375 22.738281 11.984375 21.777344 11.984375 20.886719 Z M 11.984375 20.886719 "/>
</g>
</svg>
